<svg xmlns="http://www.w3.org/2000/svg" viewBox="0 0 5457 4961"><defs><style>.a{font-size:18px;}.a,.b,.g{font-family:Helvetica-Bold, Helvetica;font-weight:700;}.b{font-size:17px;}.c{letter-spacing:-0.02em;}.d{letter-spacing:-0.05em;}.e{letter-spacing:-0.07em;}.f{fill:#f78e43;}.f,.h{stroke:#f78e43;}.f,.h,.i,.j,.k{stroke-linecap:round;stroke-width:20px;}.f,.h,.i,.j,.k,.l,.m,.o,.p{stroke-miterlimit:10;}.g{font-size:30px;}.g,.l,.m,.q{fill:#fff;}.h,.i,.j,.k,.o,.p{fill:none;}.i{stroke:#0085b4;}.j{stroke:#fdba2f;}.k{stroke:#bb3e95;}.l,.m{stroke:#000;}.m{stroke-width:4px;}.n{opacity:0.25;}.o,.p{stroke:#fff;stroke-width:0.75px;}.p{stroke-dasharray:2.17 2.17;}.r{opacity:0.4;}</style></defs><title>Artboard 1</title><text class="a" transform="translate(1206 1971)">Elisabeth</text><text class="b" transform="translate(1395 1971)">Ribaucourt</text><text class="b" transform="translate(1620 1971)">IJzer</text><text class="b" transform="translate(1620 1953)">Yser</text><text class="b" transform="translate(1863 1971)">Rogier</text><text class="b" transform="translate(2115 1971)">Kruidtuin</text><text class="b" transform="translate(2115 1953)">Botanique</text><text class="b" transform="translate(2394 2142)">Madou</text><text class="b" transform="translate(2394 2304)">Arts-Loi</text><text class="b" transform="translate(2394 2322)">Kunst-<tspan class="c" x="53.82" y="0">W</tspan><tspan x="69.57" y="0">et</tspan></text><text class="b" transform="translate(2394 2430)"><tspan class="d">T</tspan><tspan x="9.45" y="0">rône</tspan></text><text class="b" transform="translate(2394 2448)"><tspan class="d">T</tspan><tspan x="9.45" y="0">rone</tspan></text><text class="b" transform="translate(2392.48 2583) scale(1.01 1)">Naamsepoort</text><text class="b" transform="translate(2392 2601)">Porte de Namur</text><text class="b" transform="translate(2304 2745)">Louiza</text><text class="b" transform="translate(2124 2907)">Munthof</text><text class="b" transform="translate(2124 2925)">Hôtel de Monnaies</text><text class="b" transform="translate(1935 2939)">Porte de Hal</text><text class="b" transform="translate(1935 2957)">Hallepoort</text><text class="b" transform="translate(828 3483)">Het Rad</text><text class="b" transform="translate(828 3501)">La Roue</text><text class="b" transform="translate(1782 2939)">Zuidstation</text><text class="b" transform="translate(1782 2957)">Gare du Midi</text><text class="b" transform="translate(1296 2880)">Clemenceau</text><text class="b" transform="translate(1197 2754)">Delacroix</text><text class="b" transform="translate(1035 2421)">Beekkant</text><text class="b" transform="translate(1072 2205)">Ossegem</text><text class="b" transform="translate(1072 2223)">Osseghem</text><text class="b" transform="translate(1089 2052)">Simonis</text><text class="b" transform="translate(1098 1791)">Belgica</text><text class="b" transform="translate(1062 1683)">Pannenhuis</text><text class="b" transform="translate(1080 1476)">Bockstael</text><text class="b" transform="translate(945 1264)">Stuyvenbergh</text><text class="b" transform="translate(801 1152)">Houba-Brugmann</text><text class="b" transform="translate(969 873)">Heysel</text><text class="b" transform="translate(969 891)">Heizel</text><text class="b" transform="translate(540 783)">Roi Baudouin</text><text class="b" transform="translate(540 801)">Koning Boudewijn</text><text class="b" transform="translate(342 3690)">Erasme</text><text class="b" transform="translate(342 3708)">Erasmus</text><text class="b" transform="translate(594 3681)">Eddy Merckx</text><text class="b" transform="translate(846 3618)">Ceria</text><text class="b" transform="translate(846 3636)">Coovi</text><text class="b" transform="translate(855 3357)">Bizet</text><text class="b" transform="translate(819 3177)"><tspan class="d">V</tspan><tspan x="10.41" y="0">eeweide</tspan></text><text class="b" transform="translate(819 3195)"><tspan class="d">V</tspan><tspan x="10.41" y="0">eeweyde</tspan></text><text class="b" transform="translate(873 2943)">Saint-Guidon</text><text class="b" transform="translate(873 2961)">Sint-Guido</text><text class="b" transform="translate(1026 2835)">Aumale</text><text class="b" transform="translate(1035 2673)">Jacques Brel</text><text class="b" transform="translate(981 2547)"><tspan class="c">W</tspan><tspan x="15.75" y="0">eststation</tspan></text><text class="b" transform="translate(981 2565)">Gare de l’Ouest</text><text class="b" transform="translate(1260 2214)">Zwarte <tspan class="c" x="59.52" y="0">V</tspan><tspan x="70.56" y="0">ijvers</tspan></text><text class="b" transform="translate(1260 2232)">Etangs Noirs</text><text class="b" transform="translate(1413 2214)">Comte de Flandre</text><text class="b" transform="translate(1413 2232)">Graaf van Vlaanderen</text><text class="b" transform="translate(1611 2214)">Sint-Katelijne</text><text class="b" transform="translate(1611 2232)">Sainte-Catherine</text><text class="b" transform="translate(1827 2232)">De Brouckère</text><text class="b" transform="translate(1998 2214)">Gare Centrale</text><text class="b" transform="translate(1998 2232)">Centraal Station</text><text class="b" transform="translate(2160 2214)">Park</text><text class="b" transform="translate(2160 2232)">Parc</text><text class="b" transform="translate(2610 2214)">Maalbeek</text><text class="b" transform="translate(2610 2232)">Maelbeek</text><text class="b" transform="translate(2754 2232)">Schuman</text><text class="b" transform="translate(3046 2230)">Merode</text><text class="b" transform="translate(3141 2403)">Thieffry</text><text class="b" transform="translate(3357 2565)"><tspan xml:space="preserve">  Pétillon</tspan></text><text class="b" transform="translate(3357 2907)"><tspan xml:space="preserve">  Hankar</tspan></text><text class="b" transform="translate(3357 3015)"><tspan xml:space="preserve">  Delta</tspan></text><text class="b" transform="translate(3483 3134.33)"><tspan xml:space="preserve">  Beaulieu</tspan></text><text class="b" transform="translate(3870 3132)"><tspan xml:space="preserve">  Demey</tspan></text><text class="b" transform="translate(4095 3141)"><tspan xml:space="preserve">  Herrmann-Debroux</tspan></text><text class="b" transform="translate(3258 2277)">Montgomery</text><text class="b" transform="translate(3402 2169)">Joséphine-Charlotte</text><text class="b" transform="translate(3474 2097)">Gribaumont</text><text class="b" transform="translate(3438 2007)"><tspan class="e">T</tspan><tspan x="9.13" y="0">omberg</tspan></text><text class="b" transform="translate(3600 1971)">Roodebeek</text><text class="b" transform="translate(3753 1971)"><tspan class="d">V</tspan><tspan x="10.41" y="0">andervelde</tspan></text><text class="b" transform="translate(3915 1899)">Alma</text><text class="b" transform="translate(4131 1971)">Crainhem</text><text class="b" transform="translate(4131 1989)">Kraainem</text><text class="b" transform="translate(4131 2169)">Stokkel</text><text class="b" transform="translate(4131 2187)">Stockel</text><text class="b" transform="translate(2304 2727)">Louise</text><rect class="f" x="1242.84" y="1926" width="18" height="9" rx="0.84" ry="0.84"/><text class="g" transform="translate(1244 1941)">2</text><path class="h" d="M1242,2016H2289.23c38,0,59.79,22.42,59.77,61.12v.41c-.06,100.13,0,196.53,0,305,0,55.64,0,72.41,0,106v71.38c0,18.58,1.74,36.4-11.16,49.54l-236.78,241.08A68.21,68.21,0,0,1,2052.4,2871H1503.93a68.19,68.19,0,0,1-49.44-21.34L1233,2628c-16-16.89-18-36.65-18-72V2037.73"/><path class="i" d="M1242,1989H2302.11a73.89,73.89,0,0,1,73.89,73.89v516.5a73.9,73.9,0,0,1-21.64,52.25L2115,2880c-13.86,13.86-38,18-57.61,18H1489.32a73.87,73.87,0,0,1-53.1-22.51l-227.43-235A120.34,120.34,0,0,1,1188,2583V1388.82a73.89,73.89,0,0,0-20.7-51.29L965.7,1128.47a73.89,73.89,0,0,1-20.7-51.29V865.89A73.89,73.89,0,0,0,871.11,792H720"/><rect class="i" x="1287" y="1926" width="18" height="9" rx="0.84" ry="0.84"/><text class="g" transform="translate(1288.16 1941)">6</text><rect class="i" x="720" y="750" width="18" height="9" rx="0.84" ry="0.84"/><text class="g" transform="translate(721.16 765)">6</text><rect class="j" x="468" y="3654" width="18" height="9" rx="0.84" ry="0.84"/><text class="g" transform="translate(469.16 3669)">1</text><rect class="j" x="4050" y="3105" width="18" height="9" rx="0.84" ry="0.84"/><text class="g" transform="translate(4051.16 3120)">1</text><path class="j" d="M459,3699H865.84c23.93,0,51.84-21.07,52.16-45l-.23-603.69A43.72,43.72,0,0,1,930,3020.54l218.72-226.83a43.71,43.71,0,0,0,12.26-30.37V2320.75a43.75,43.75,0,0,1,43.75-43.75H3095.88a43.75,43.75,0,0,1,30.93,12.81l208.63,208.63a43.76,43.76,0,0,1,12.81,30.32l1,576.24a43.74,43.74,0,0,0,43.74,43.13l378,1.87h306"/><rect class="k" x="4140" y="2127" width="18" height="9" rx="0.84" ry="0.84"/><text class="g" transform="translate(4141.16 2142)">5</text><rect class="k" x="1089" y="2502" width="18" height="9" rx="0.84" ry="0.84"/><text class="g" transform="translate(1090.16 2517)">5</text><path class="k" d="M1134,2538V2317.06a67.07,67.07,0,0,1,67.06-67.06H3249.52a67.11,67.11,0,0,0,45.82-18.09l240.32-224.82a67.11,67.11,0,0,1,45.82-18.09h271.3a67.05,67.05,0,0,0,45.49-17.79l78.46-72.42a67.05,67.05,0,0,1,45.49-17.79h0a67.07,67.07,0,0,1,47.42,19.64l5.72,5.72a67.07,67.07,0,0,1,19.64,47.42V2178"/><circle class="l" cx="949.5" cy="886.5" r="4.5"/><circle class="l" cx="940.5" cy="886.5" r="4.5"/><circle class="l" cx="983.37" cy="1140.3" r="4.5"/><circle class="l" cx="976" cy="1145.47" r="4.5"/><circle class="l" cx="1094.5" cy="1255.5" r="4.5"/><circle class="l" cx="1087.13" cy="1260.66" r="4.5"/><circle class="l" cx="1192.5" cy="1475.5" r="4.5"/><circle class="l" cx="1183.5" cy="1475.5" r="4.5"/><circle class="l" cx="1192.5" cy="1678.5" r="4.5"/><circle class="l" cx="1183.5" cy="1678.5" r="4.5"/><circle class="l" cx="1192.5" cy="1786.5" r="4.5"/><circle class="l" cx="1183.5" cy="1786.5" r="4.5"/><circle class="l" cx="1192.5" cy="2045.5" r="4.5"/><circle class="l" cx="1183.5" cy="2045.5" r="4.5"/><circle class="l" cx="1192.5" cy="2209.5" r="4.5"/><circle class="l" cx="1183.5" cy="2209.5" r="4.5"/><circle class="l" cx="1219.5" cy="2209.5" r="4.5"/><circle class="l" cx="1210.5" cy="2209.5" r="4.5"/><line class="l" x1="1197" y1="2209.2" x2="1206" y2="2209.2"/><circle class="l" cx="1192.5" cy="2416.5" r="4.5"/><circle class="l" cx="1183.5" cy="2416.5" r="4.5"/><circle class="l" cx="1219.5" cy="2416.5" r="4.5"/><circle class="l" cx="1210.5" cy="2416.5" r="4.5"/><line class="l" x1="1197" y1="2416.2" x2="1206" y2="2416.2"/><circle class="l" cx="1138.5" cy="2416.5" r="4.5"/><circle class="l" cx="1129.5" cy="2416.5" r="4.5"/><circle class="l" cx="1165.5" cy="2416.5" r="4.5"/><circle class="l" cx="1156.5" cy="2416.5" r="4.5"/><line class="l" x1="1143" y1="2416.2" x2="1152" y2="2416.2"/><line class="l" x1="1170" y1="2416.2" x2="1179" y2="2416.2"/><circle class="l" cx="1192.5" cy="2531.5" r="4.5"/><circle class="l" cx="1183.5" cy="2531.5" r="4.5"/><circle class="l" cx="1219.5" cy="2531.5" r="4.5"/><circle class="l" cx="1210.5" cy="2531.5" r="4.5"/><line class="l" x1="1197" y1="2531.2" x2="1206" y2="2531.2"/><circle class="l" cx="1165.5" cy="2531.5" r="4.5"/><circle class="l" cx="1156.5" cy="2531.5" r="4.5"/><line class="l" x1="1140" y1="2531.2" x2="1152" y2="2531.2"/><line class="l" x1="1170" y1="2531.2" x2="1179" y2="2531.2"/><circle class="l" cx="1165.5" cy="2665.5" r="4.5"/><circle class="l" cx="1156.5" cy="2665.5" r="4.5"/><circle class="l" cx="922.5" cy="3181.5" r="4.5"/><circle class="l" cx="913.5" cy="3181.5" r="4.5"/><circle class="l" cx="922.5" cy="3352.5" r="4.5"/><circle class="l" cx="913.5" cy="3352.5" r="4.5"/><circle class="l" cx="922.5" cy="3487.5" r="4.5"/><circle class="l" cx="913.5" cy="3487.5" r="4.5"/><circle class="l" cx="922.5" cy="3622.5" r="4.5"/><circle class="l" cx="913.5" cy="3622.5" r="4.5"/><circle class="l" cx="643.5" cy="3703.5" r="4.5"/><circle class="l" cx="643.5" cy="3694.5" r="4.5"/><circle class="l" cx="988.39" cy="2966.43" r="4.5"/><circle class="l" cx="981.7" cy="2960.4" r="4.5"/><circle class="l" cx="1109.19" cy="2841.2" r="4.5"/><circle class="l" cx="1102.5" cy="2835.18" r="4.5"/><circle class="m" cx="1246.5" cy="1989" r="4.5"/><circle class="l" cx="1246.5" cy="1989" r="4.5"/><line class="l" x1="1246.5" y1="2012" x2="1246.5" y2="1994"/><circle class="l" cx="1435.5" cy="1993.5" r="4.5"/><circle class="l" cx="1435.5" cy="1984.5" r="4.5"/><circle class="l" cx="1435.5" cy="2020.5" r="4.5"/><circle class="l" cx="1435.5" cy="2011.5" r="4.5"/><line class="l" x1="1435.5" y1="2007" x2="1435.5" y2="1998"/><circle class="l" cx="1633.5" cy="1993.5" r="4.5"/><circle class="l" cx="1633.5" cy="1984.5" r="4.5"/><circle class="l" cx="1633.5" cy="2020.5" r="4.5"/><circle class="l" cx="1633.5" cy="2011.5" r="4.5"/><line class="l" x1="1633.5" y1="2007" x2="1633.5" y2="1998"/><circle class="l" cx="1885.5" cy="1993.5" r="4.5"/><circle class="l" cx="1885.5" cy="1984.5" r="4.5"/><circle class="l" cx="1885.5" cy="2020.5" r="4.5"/><circle class="l" cx="1885.5" cy="2011.5" r="4.5"/><line class="l" x1="1885.5" y1="2007" x2="1885.5" y2="1998"/><circle class="l" cx="2146.5" cy="1993.5" r="4.5"/><circle class="l" cx="2146.5" cy="1984.5" r="4.5"/><circle class="l" cx="2146.5" cy="2020.5" r="4.5"/><circle class="l" cx="2146.5" cy="2011.5" r="4.5"/><line class="l" x1="2146.5" y1="2007" x2="2146.5" y2="1998"/><circle class="l" cx="2376.5" cy="2254.5" r="4.5"/><circle class="l" cx="2376.5" cy="2245.5" r="4.5"/><circle class="l" cx="2376.5" cy="2281.5" r="4.5"/><circle class="l" cx="2376.5" cy="2272.5" r="4.5"/><line class="l" x1="2376.5" y1="2268" x2="2376.5" y2="2259"/><circle class="l" cx="2182.5" cy="2254.5" r="4.5"/><circle class="l" cx="2182.5" cy="2245.5" r="4.5"/><circle class="l" cx="2182.5" cy="2281.5" r="4.5"/><circle class="l" cx="2182.5" cy="2272.5" r="4.5"/><line class="l" x1="2182.5" y1="2268" x2="2182.5" y2="2259"/><circle class="l" cx="2065.5" cy="2254.5" r="4.5"/><circle class="l" cx="2065.5" cy="2245.5" r="4.5"/><circle class="l" cx="2065.5" cy="2281.5" r="4.5"/><circle class="l" cx="2065.5" cy="2272.5" r="4.5"/><line class="l" x1="2065.5" y1="2268" x2="2065.5" y2="2259"/><circle class="l" cx="1885.5" cy="2254.5" r="4.5"/><circle class="l" cx="1885.5" cy="2245.5" r="4.5"/><circle class="l" cx="1885.5" cy="2281.5" r="4.5"/><circle class="l" cx="1885.5" cy="2272.5" r="4.5"/><line class="l" x1="1885.5" y1="2268" x2="1885.5" y2="2259"/><circle class="l" cx="1687.5" cy="2254.5" r="4.5"/><circle class="l" cx="1687.5" cy="2245.5" r="4.5"/><circle class="l" cx="1687.5" cy="2281.5" r="4.5"/><circle class="l" cx="1687.5" cy="2272.5" r="4.5"/><line class="l" x1="1687.5" y1="2268" x2="1687.5" y2="2259"/><circle class="l" cx="1471.5" cy="2254.5" r="4.5"/><circle class="l" cx="1471.5" cy="2245.5" r="4.5"/><circle class="l" cx="1471.5" cy="2281.5" r="4.5"/><circle class="l" cx="1471.5" cy="2272.5" r="4.5"/><line class="l" x1="1471.5" y1="2268" x2="1471.5" y2="2259"/><circle class="l" cx="1327.5" cy="2254.5" r="4.5"/><circle class="l" cx="1327.5" cy="2245.5" r="4.5"/><circle class="l" cx="1327.5" cy="2281.5" r="4.5"/><circle class="l" cx="1327.5" cy="2272.5" r="4.5"/><line class="l" x1="1327.5" y1="2268" x2="1327.5" y2="2259"/><circle class="l" cx="1984.5" cy="2875.5" r="4.5"/><circle class="l" cx="1984.5" cy="2866.5" r="4.5"/><circle class="l" cx="1984.5" cy="2902.5" r="4.5"/><circle class="l" cx="1984.5" cy="2893.5" r="4.5"/><line class="l" x1="1984.5" y1="2889" x2="1984.5" y2="2880"/><circle class="l" cx="1840.5" cy="2875.5" r="4.5"/><circle class="l" cx="1840.5" cy="2866.5" r="4.5"/><circle class="l" cx="1840.5" cy="2902.5" r="4.5"/><circle class="l" cx="1840.5" cy="2893.5" r="4.5"/><line class="l" x1="1840.5" y1="2889" x2="1840.5" y2="2880"/><circle class="l" cx="2632.5" cy="2254.5" r="4.5"/><circle class="l" cx="2632.5" cy="2245.5" r="4.5"/><circle class="l" cx="2632.5" cy="2281.5" r="4.5"/><circle class="l" cx="2632.5" cy="2272.5" r="4.5"/><line class="l" x1="2632.5" y1="2268" x2="2632.5" y2="2259"/><circle class="l" cx="2794.5" cy="2254.5" r="4.5"/><circle class="l" cx="2794.5" cy="2245.5" r="4.5"/><circle class="l" cx="2794.5" cy="2281.5" r="4.5"/><circle class="l" cx="2794.5" cy="2272.5" r="4.5"/><line class="l" x1="2794.5" y1="2268" x2="2794.5" y2="2259"/><circle class="l" cx="3082.5" cy="2254.5" r="4.5"/><circle class="l" cx="3082.5" cy="2245.5" r="4.5"/><circle class="l" cx="3082.5" cy="2281.5" r="4.5"/><circle class="l" cx="3082.5" cy="2272.5" r="4.5"/><line class="l" x1="3082.5" y1="2268" x2="3082.5" y2="2259"/><circle class="l" cx="2371.5" cy="2294.5" r="4.5"/><circle class="l" cx="2380.5" cy="2294.5" r="4.5"/><circle class="l" cx="2344.5" cy="2294.5" r="4.5"/><circle class="l" cx="2353.5" cy="2294.5" r="4.5"/><line class="l" x1="2358" y1="2294.5" x2="2367" y2="2294.5"/><circle class="l" cx="2371.5" cy="2434.5" r="4.5"/><circle class="l" cx="2380.5" cy="2434.5" r="4.5"/><circle class="l" cx="2344.5" cy="2434.5" r="4.5"/><circle class="l" cx="2353.5" cy="2434.5" r="4.5"/><line class="l" x1="2358" y1="2434.5" x2="2367" y2="2434.5"/><circle class="l" cx="2371.5" cy="2578.5" r="4.5"/><circle class="l" cx="2380.5" cy="2578.5" r="4.5"/><circle class="l" cx="2344.5" cy="2578.5" r="4.5"/><circle class="l" cx="2353.5" cy="2578.5" r="4.5"/><line class="l" x1="2358" y1="2578.5" x2="2367" y2="2578.5"/><circle class="l" cx="2277.2" cy="2705.36" r="4.5"/><circle class="l" cx="2283.78" cy="2711.5" r="4.5"/><circle class="l" cx="2256.4" cy="2686.36" r="4.5"/><circle class="l" cx="2262.98" cy="2692.5" r="4.5"/><line class="l" x1="2266.6" y1="2695.6" x2="2273.57" y2="2702.1"/><circle class="l" cx="2125.5" cy="2862.36" r="4.5"/><circle class="l" cx="2132.08" cy="2868.5" r="4.5"/><circle class="l" cx="2103.6" cy="2841.36" r="4.5"/><circle class="l" cx="2110.18" cy="2847.5" r="4.5"/><line class="l" x1="2113.5" y1="2850.4" x2="2121.85" y2="2859.4"/><circle class="l" cx="1435.5" cy="2836.92" r="4.5"/><circle class="l" cx="1442.19" cy="2830.9" r="4.5"/><circle class="l" cx="1412.5" cy="2857.5" r="4.5"/><circle class="l" cx="1419.19" cy="2851.48" r="4.5"/><line class="l" x1="1422.5" y1="2849" x2="1432.5" y2="2840"/><circle class="l" cx="1303.1" cy="2704.5" r="4.5"/><line class="l" x1="1292.5" y1="2714" x2="1299.94" y2="2707.3"/><circle class="l" cx="1309.79" cy="2698.48" r="4.5"/><circle class="l" cx="1281.8" cy="2722.5" r="4.5"/><circle class="l" cx="1288.49" cy="2716.48" r="4.5"/><circle class="l" cx="3253.5" cy="2254.5" r="4.5"/><circle class="l" cx="3253.5" cy="2245.5" r="4.5"/><circle class="l" cx="3640.5" cy="1993.5" r="4.5"/><circle class="l" cx="3640.5" cy="1984.5" r="4.5"/><circle class="l" cx="3802.5" cy="1993.5" r="4.5"/><circle class="l" cx="3802.5" cy="1984.5" r="4.5"/><circle class="l" cx="4099.5" cy="1975.5" r="4.5"/><circle class="l" cx="4090.5" cy="1975.5" r="4.5"/><circle class="l" cx="3352.7" cy="2560.5" r="4.5"/><circle class="l" cx="3343.7" cy="2560.5" r="4.5"/><circle class="l" cx="3353.5" cy="2902.5" r="4.5"/><circle class="l" cx="3344.5" cy="2902.5" r="4.5"/><circle class="l" cx="3353.5" cy="3010.5" r="4.5"/><circle class="l" cx="3344.5" cy="3010.5" r="4.5"/><circle class="l" cx="3523.5" cy="3153.5" r="4.5"/><circle class="l" cx="3523.5" cy="3144.5" r="4.5"/><circle class="l" cx="3901.5" cy="3154.5" r="4.5"/><circle class="l" cx="3901.5" cy="3145.5" r="4.5"/><circle class="l" cx="3967.36" cy="1913.5" r="4.5"/><circle class="l" cx="3961" cy="1907.14" r="4.5"/><circle class="l" cx="3531.08" cy="2017.8" r="4.5"/><circle class="l" cx="3524.5" cy="2011.66" r="4.5"/><circle class="l" cx="3458.14" cy="2085.97" r="4.5"/><circle class="l" cx="3452" cy="2079.39" r="4.5"/><circle class="l" cx="3396.46" cy="2143.59" r="4.5"/><circle class="l" cx="3390.1" cy="2137.22" r="4.5"/><circle class="l" cx="3217.5" cy="2387" r="4.5"/><circle class="l" cx="3224.39" cy="2381.21" r="4.5"/><circle class="l" cx="2371.5" cy="2137.5" r="4.5"/><circle class="l" cx="2380.5" cy="2137.5" r="4.5"/><circle class="l" cx="2344.5" cy="2137.5" r="4.5"/><circle class="l" cx="2353.5" cy="2137.5" r="4.5"/><line class="l" x1="2358" y1="2137.5" x2="2367" y2="2137.5"/><line class="l" x1="2376" y1="2295" x2="2376" y2="2286"/><line class="l" x1="1197" y1="2046" x2="1209" y2="2046"/><circle class="m" cx="1246.5" cy="2016" r="4.5"/><circle class="l" cx="1246.5" cy="2016" r="4.5"/><circle class="m" cx="1215" cy="2045.5" r="4.5"/><circle class="l" cx="1215" cy="2045.5" r="4.5"/><circle class="m" cx="724.5" cy="792" r="4.5"/><circle class="l" cx="724.5" cy="792" r="4.5"/><circle class="m" cx="467.5" cy="3699.2" r="4.5"/><circle class="l" cx="467.5" cy="3699.2" r="4.5"/><circle class="m" cx="4071.5" cy="3150.5" r="4.5"/><circle class="l" cx="4071.5" cy="3150.5" r="4.5"/><circle class="m" cx="4095" cy="2170.5" r="4.5"/><circle class="l" cx="4095" cy="2170.5" r="4.5"/><circle class="m" cx="1134" cy="2531.1" r="4.5"/><circle class="l" cx="1134" cy="2531.1" r="4.5"/><g class="n"><line class="o" x1="828.81" y1="787" x2="829.81" y2="787"/><line class="p" x1="831.98" y1="787" x2="843.92" y2="787"/><line class="o" x1="845" y1="787" x2="846" y2="787"/><polygon class="q" points="831.3 790.07 831.81 789.52 829.1 787 831.81 784.48 831.3 783.93 828 787 831.3 790.07"/><line class="o" x1="828" y1="797" x2="829" y2="797"/><line class="p" x1="831.17" y1="797" x2="843.1" y2="797"/><line class="o" x1="844.19" y1="797" x2="845.19" y2="797"/><polygon class="q" points="842.7 800.07 842.19 799.52 844.9 797 842.19 794.48 842.7 793.93 846 797 842.7 800.07"/></g><g class="n"><line class="o" x1="940" y1="1028.19" x2="940" y2="1027.19"/><line class="p" x1="940" y1="1025.02" x2="940" y2="1013.08"/><line class="o" x1="940" y1="1012" x2="940" y2="1011"/><polygon class="q" points="943.07 1025.7 942.52 1025.19 940 1027.9 937.48 1025.19 936.93 1025.7 940 1029 943.07 1025.7"/><line class="o" x1="950" y1="1029" x2="950" y2="1028"/><line class="p" x1="950" y1="1025.83" x2="950" y2="1013.9"/><line class="o" x1="950" y1="1012.81" x2="950" y2="1011.81"/><polygon class="q" points="953.07 1014.3 952.52 1014.81 950 1012.1 947.48 1014.81 946.93 1014.3 950 1011 953.07 1014.3"/></g><g class="n"><line class="o" x1="1034.15" y1="1191.94" x2="1034.81" y2="1192.68"/><line class="p" x1="1036.27" y1="1194.29" x2="1044.25" y2="1203.16"/><line class="o" x1="1044.98" y1="1203.97" x2="1045.65" y2="1204.71"/><polygon class="q" points="1033.53 1195.84 1034.28 1195.85 1034.34 1192.15 1038.02 1192.48 1038.09 1191.73 1033.6 1191.33 1033.53 1195.84"/><line class="o" x1="1026.17" y1="1198.02" x2="1026.84" y2="1198.77"/><line class="p" x1="1028.29" y1="1200.38" x2="1036.28" y2="1209.25"/><line class="o" x1="1037" y1="1210.05" x2="1037.67" y2="1210.8"/><polygon class="q" points="1033.73 1211 1033.79 1210.25 1037.48 1210.58 1037.54 1206.88 1038.29 1206.9 1038.21 1211.4 1033.73 1211"/></g><g class="n"><line class="o" x1="1183" y1="1592.19" x2="1183" y2="1591.19"/><line class="p" x1="1183" y1="1589.02" x2="1183" y2="1577.08"/><line class="o" x1="1183" y1="1576" x2="1183" y2="1575"/><polygon class="q" points="1186.07 1589.7 1185.52 1589.19 1183 1591.9 1180.48 1589.19 1179.93 1589.7 1183 1593 1186.07 1589.7"/><line class="o" x1="1193" y1="1593" x2="1193" y2="1592"/><line class="p" x1="1193" y1="1589.83" x2="1193" y2="1577.9"/><line class="o" x1="1193" y1="1576.81" x2="1193" y2="1575.81"/><polygon class="q" points="1196.07 1578.3 1195.52 1578.81 1193 1576.1 1190.48 1578.81 1189.93 1578.3 1193 1575 1196.07 1578.3"/></g><g class="n"><line class="o" x1="1183" y1="1925.19" x2="1183" y2="1924.19"/><line class="p" x1="1183" y1="1922.02" x2="1183" y2="1910.08"/><line class="o" x1="1183" y1="1909" x2="1183" y2="1908"/><polygon class="q" points="1186.07 1922.7 1185.52 1922.19 1183 1924.9 1180.48 1922.19 1179.93 1922.7 1183 1926 1186.07 1922.7"/><line class="o" x1="1193" y1="1926" x2="1193" y2="1925"/><line class="p" x1="1193" y1="1922.83" x2="1193" y2="1910.9"/><line class="o" x1="1193" y1="1909.81" x2="1193" y2="1908.81"/><polygon class="q" points="1196.07 1911.3 1195.52 1911.81 1193 1909.1 1190.48 1911.81 1189.93 1911.3 1193 1908 1196.07 1911.3"/></g><g class="n"><line class="o" x1="1183" y1="2483.19" x2="1183" y2="2482.19"/><line class="p" x1="1183" y1="2480.02" x2="1183" y2="2468.08"/><line class="o" x1="1183" y1="2467" x2="1183" y2="2466"/><polygon class="q" points="1186.07 2480.7 1185.52 2480.19 1183 2482.9 1180.48 2480.19 1179.93 2480.7 1183 2484 1186.07 2480.7"/><line class="o" x1="1193" y1="2484" x2="1193" y2="2483"/><line class="p" x1="1193" y1="2480.83" x2="1193" y2="2468.9"/><line class="o" x1="1193" y1="2467.81" x2="1193" y2="2466.81"/><polygon class="q" points="1196.07 2469.3 1195.52 2469.81 1193 2467.1 1190.48 2469.81 1189.93 2469.3 1193 2466 1196.07 2469.3"/></g><g class="n"><line class="o" x1="1342.22" y1="2770.99" x2="1342.89" y2="2771.73"/><line class="p" x1="1344.34" y1="2773.34" x2="1352.33" y2="2782.21"/><line class="o" x1="1353.05" y1="2783.02" x2="1353.72" y2="2783.76"/><polygon class="q" points="1341.61 2774.89 1342.36 2774.9 1342.41 2771.2 1346.1 2771.53 1346.16 2770.78 1341.68 2770.38 1341.61 2774.89"/><line class="o" x1="1334.25" y1="2777.07" x2="1334.92" y2="2777.82"/><line class="p" x1="1336.37" y1="2779.43" x2="1344.35" y2="2788.3"/><line class="o" x1="1345.08" y1="2789.1" x2="1345.75" y2="2789.85"/><polygon class="q" points="1341.81 2790.05 1341.87 2789.3 1345.55 2789.63 1345.61 2785.93 1346.36 2785.95 1346.29 2790.45 1341.81 2790.05"/></g><g class="n"><line class="o" x1="1602.81" y1="2893" x2="1603.81" y2="2893"/><line class="p" x1="1605.98" y1="2893" x2="1617.92" y2="2893"/><line class="o" x1="1619" y1="2893" x2="1620" y2="2893"/><polygon class="q" points="1605.3 2896.07 1605.81 2895.52 1603.1 2893 1605.81 2890.48 1605.3 2889.93 1602 2893 1605.3 2896.07"/><line class="o" x1="1602" y1="2903" x2="1603" y2="2903"/><line class="p" x1="1605.17" y1="2903" x2="1617.1" y2="2903"/><line class="o" x1="1618.19" y1="2903" x2="1619.19" y2="2903"/><polygon class="q" points="1616.7 2906.07 1616.19 2905.52 1618.9 2903 1616.19 2900.48 1616.7 2899.93 1620 2903 1616.7 2906.07"/></g><g class="n"><line class="o" x1="1899.81" y1="2893" x2="1900.81" y2="2893"/><line class="p" x1="1902.98" y1="2893" x2="1914.92" y2="2893"/><line class="o" x1="1916" y1="2893" x2="1917" y2="2893"/><polygon class="q" points="1902.3 2896.07 1902.81 2895.52 1900.1 2893 1902.81 2890.48 1902.3 2889.93 1899 2893 1902.3 2896.07"/><line class="o" x1="1899" y1="2903" x2="1900" y2="2903"/><line class="p" x1="1902.17" y1="2903" x2="1914.1" y2="2903"/><line class="o" x1="1915.19" y1="2903" x2="1916.19" y2="2903"/><polygon class="q" points="1913.7 2906.07 1913.19 2905.52 1915.9 2903 1913.19 2900.48 1913.7 2899.93 1917 2903 1913.7 2906.07"/></g><g class="n"><line class="o" x1="2200.55" y1="2785.45" x2="2201.24" y2="2784.72"/><line class="p" x1="2202.72" y1="2783.13" x2="2210.85" y2="2774.41"/><line class="o" x1="2211.59" y1="2773.61" x2="2212.28" y2="2772.88"/><polygon class="q" points="2204.49 2785.73 2204.44 2784.98 2200.75 2785.24 2200.76 2781.54 2200.01 2781.54 2200 2786.05 2204.49 2785.73"/><line class="o" x1="2207.31" y1="2792.87" x2="2208" y2="2792.13"/><line class="p" x1="2209.48" y1="2790.55" x2="2217.61" y2="2781.82"/><line class="o" x1="2218.35" y1="2781.03" x2="2219.03" y2="2780.3"/><polygon class="q" points="2219.58 2784.21 2218.83 2784.2 2218.84 2780.51 2215.15 2780.77 2215.1 2780.02 2219.59 2779.7 2219.58 2784.21"/></g><g class="n"><line class="o" x1="2371" y1="2510.19" x2="2371" y2="2509.19"/><line class="p" x1="2371" y1="2507.02" x2="2371" y2="2495.08"/><line class="o" x1="2371" y1="2494" x2="2371" y2="2493"/><polygon class="q" points="2374.07 2507.7 2373.52 2507.19 2371 2509.9 2368.48 2507.19 2367.93 2507.7 2371 2511 2374.07 2507.7"/><line class="o" x1="2381" y1="2511" x2="2381" y2="2510"/><line class="p" x1="2381" y1="2507.83" x2="2381" y2="2495.9"/><line class="o" x1="2381" y1="2494.81" x2="2381" y2="2493.81"/><polygon class="q" points="2384.07 2496.3 2383.52 2496.81 2381 2494.1 2378.48 2496.81 2377.93 2496.3 2381 2493 2384.07 2496.3"/></g><g class="n"><line class="o" x1="2371" y1="2186.19" x2="2371" y2="2185.19"/><line class="p" x1="2371" y1="2183.02" x2="2371" y2="2171.08"/><line class="o" x1="2371" y1="2170" x2="2371" y2="2169"/><polygon class="q" points="2374.07 2183.7 2373.52 2183.19 2371 2185.9 2368.48 2183.19 2367.93 2183.7 2371 2187 2374.07 2183.7"/><line class="o" x1="2381" y1="2187" x2="2381" y2="2186"/><line class="p" x1="2381" y1="2183.83" x2="2381" y2="2171.9"/><line class="o" x1="2381" y1="2170.81" x2="2381" y2="2169.81"/><polygon class="q" points="2384.07 2172.3 2383.52 2172.81 2381 2170.1 2378.48 2172.81 2377.93 2172.3 2381 2169 2384.07 2172.3"/></g><g class="n"><line class="o" x1="2259.81" y1="1984" x2="2260.81" y2="1984"/><line class="p" x1="2262.98" y1="1984" x2="2274.92" y2="1984"/><line class="o" x1="2276" y1="1984" x2="2277" y2="1984"/><polygon class="q" points="2262.3 1987.07 2262.81 1986.52 2260.1 1984 2262.81 1981.48 2262.3 1980.93 2259 1984 2262.3 1987.07"/><line class="o" x1="2259" y1="1994" x2="2260" y2="1994"/><line class="p" x1="2262.17" y1="1994" x2="2274.1" y2="1994"/><line class="o" x1="2275.19" y1="1994" x2="2276.19" y2="1994"/><polygon class="q" points="2273.7 1997.07 2273.19 1996.52 2275.9 1994 2273.19 1991.48 2273.7 1990.93 2277 1994 2273.7 1997.07"/></g><g class="n"><line class="o" x1="1332.81" y1="1984" x2="1333.81" y2="1984"/><line class="p" x1="1335.98" y1="1984" x2="1347.92" y2="1984"/><line class="o" x1="1349" y1="1984" x2="1350" y2="1984"/><polygon class="q" points="1335.3 1987.07 1335.81 1986.52 1333.1 1984 1335.81 1981.48 1335.3 1980.93 1332 1984 1335.3 1987.07"/><line class="o" x1="1332" y1="1994" x2="1333" y2="1994"/><line class="p" x1="1335.17" y1="1994" x2="1347.1" y2="1994"/><line class="o" x1="1348.19" y1="1994" x2="1349.19" y2="1994"/><polygon class="q" points="1346.7 1997.07 1346.19 1996.52 1348.9 1994 1346.19 1991.48 1346.7 1990.93 1350 1994 1346.7 1997.07"/></g><g class="r"><line class="o" x1="1746.81" y1="1985" x2="1747.81" y2="1985"/><line class="p" x1="1749.98" y1="1985" x2="1761.92" y2="1985"/><line class="o" x1="1763" y1="1985" x2="1764" y2="1985"/><polygon class="q" points="1749.3 1988.07 1749.81 1987.52 1747.1 1985 1749.81 1982.48 1749.3 1981.93 1746 1985 1749.3 1988.07"/><line class="o" x1="1746" y1="1995" x2="1747" y2="1995"/><line class="p" x1="1749.17" y1="1995" x2="1761.1" y2="1995"/><line class="o" x1="1762.19" y1="1995" x2="1763.19" y2="1995"/><polygon class="q" points="1760.7 1998.07 1760.19 1997.52 1762.9 1995 1760.19 1992.48 1760.7 1991.93 1764 1995 1760.7 1998.07"/></g><g class="n"><line class="o" x1="1183" y1="2141.19" x2="1183" y2="2140.19"/><line class="p" x1="1183" y1="2138.02" x2="1183" y2="2126.08"/><line class="o" x1="1183" y1="2125" x2="1183" y2="2124"/><polygon class="q" points="1186.07 2138.7 1185.52 2138.19 1183 2140.9 1180.48 2138.19 1179.93 2138.7 1183 2142 1186.07 2138.7"/><line class="o" x1="1193" y1="2142" x2="1193" y2="2141"/><line class="p" x1="1193" y1="2138.83" x2="1193" y2="2126.9"/><line class="o" x1="1193" y1="2125.81" x2="1193" y2="2124.81"/><polygon class="q" points="1196.07 2127.3 1195.52 2127.81 1193 2125.1 1190.48 2127.81 1189.93 2127.3 1193 2124 1196.07 2127.3"/></g></svg>