<svg xmlns="http://www.w3.org/2000/svg" viewBox="0 0 5457 4961"><defs><style>.a,.aa,.ab,.c,.m,.p,.q,.r,.u,.x,.y,.z{fill:none;}.a{stroke:#a3cded;}.a,.aa,.m,.p,.u,.w,.x,.y,.z{stroke-linecap:round;}.a,.aa,.ab,.c,.e,.f,.h,.m,.p,.q,.r,.u,.w,.x,.y,.z{stroke-miterlimit:10;}.a,.aa,.m,.p,.r,.u,.w,.x,.y,.z{stroke-width:20px;}.b{font-size:17px;}.b,.d,.i,.o,.v{font-family:Helvetica-Bold, Helvetica;font-weight:700;}.c{stroke:#a2cced;stroke-width:22px;}.d{font-size:30px;}.d,.e,.f{fill:#fff;}.ab,.e,.f,.h,.q{stroke:#000;}.e{stroke-width:4px;}.g{letter-spacing:-0.05em;}.i{font-size:15px;}.j{letter-spacing:-0.07em;}.k{letter-spacing:-0.02em;}.l{letter-spacing:-0.01em;}.m{stroke:#f27595;}.n{letter-spacing:-0.04em;}.o{font-size:15.05px;}.p{stroke:#c4cf37;}.q{stroke-width:2px;}.r{stroke:#c3ce39;}.s{letter-spacing:-0.05em;}.t{letter-spacing:-0.04em;}.u{stroke:#b3cf37;}.v{font-size:18px;}.w{fill:#f78e43;}.w,.x{stroke:#f78e43;}.y{stroke:#0085b4;}.z{stroke:#fdba2f;}.aa{stroke:#bb3e95;}</style></defs><title>Artboard 1</title><path class="a" d="M277.33,1960l319.12,316.53a30.38,30.38,0,0,0,21.39,8.8H993.51a19.82,19.82,0,0,1,19.82,19.83v151.48a26.44,26.44,0,0,0,6.69,17.58c22.07,24.79,91.88,102.21,105.31,104.45,14.33,2.38,351.32.5,421.82.08a29,29,0,0,1,21.53,9.41l184.89,202.15a24.49,24.49,0,0,1,6.43,16.55v376.55a20.3,20.3,0,0,1-3.18,10.92l-12.45,19.56a19.49,19.49,0,0,0-3,10.44v424.73a25.61,25.61,0,0,1-25.61,25.61H1593.6a20.26,20.26,0,0,0-20.27,20.26v156.48a23.66,23.66,0,0,0,7.08,16.87l126.64,124.29a34.34,34.34,0,0,1,10.28,24.51V4408"/><text class="b" transform="translate(1542.67 4421.33)">Drogenbos Kasteel</text><text class="b" transform="translate(1536 4402.67)">Drogenbos Château</text><rect class="c" x="1706.67" y="4439" width="18" height="9" rx="0.84" ry="0.84"/><text class="d" transform="translate(1698.67 4453.33)">82</text><circle class="e" cx="1717.7" cy="4404.5" r="4.5"/><circle class="f" cx="1717.7" cy="4404.5" r="4.5"/><text class="b" transform="translate(1589.33 4346.67)">Grand<tspan class="g" x="50.06" y="0">’</tspan><tspan x="53.86" y="0" xml:space="preserve"> Route</tspan></text><text class="b" transform="translate(1605.33 4329.9)">Grote Baan</text><path class="h" d="M1722.24,4325.53l4.07,5.85a.45.45,0,0,1-.37.71h-8.14a.45.45,0,0,1-.37-.71l4.07-5.85A.45.45,0,0,1,1722.24,4325.53Z"/><circle class="f" cx="1721.85" cy="4334.59" r="4.5"/><path class="h" d="M1712.45,4343.65l-4.07-5.85a.45.45,0,0,1,.37-.71h8.14a.46.46,0,0,1,.38.71l-4.08,5.85A.45.45,0,0,1,1712.45,4343.65Z"/><circle class="f" cx="1712.85" cy="4334.59" r="4.5"/><text class="b" transform="translate(1650.67 4280)">Rodts</text><path class="h" d="M1722.24,4264.35l4.07,5.85a.45.45,0,0,1-.37.71h-8.14a.45.45,0,0,1-.37-.71l4.07-5.85A.45.45,0,0,1,1722.24,4264.35Z"/><circle class="f" cx="1721.85" cy="4273.41" r="4.5"/><path class="h" d="M1712.45,4282.47l-4.07-5.85a.45.45,0,0,1,.37-.71h8.14a.46.46,0,0,1,.38.71l-4.08,5.85A.45.45,0,0,1,1712.45,4282.47Z"/><circle class="f" cx="1712.85" cy="4273.41" r="4.5"/><text class="b" transform="translate(1605.33 4224)">Keyenbemt</text><path class="h" d="M1722.24,4208.35l4.07,5.85a.45.45,0,0,1-.37.71h-8.14a.45.45,0,0,1-.37-.71l4.07-5.85A.45.45,0,0,1,1722.24,4208.35Z"/><circle class="f" cx="1721.85" cy="4217.41" r="4.5"/><path class="h" d="M1712.45,4226.47l-4.07-5.85a.45.45,0,0,1,.37-.71h8.14a.45.45,0,0,1,.37.71l-4.07,5.85A.45.45,0,0,1,1712.45,4226.47Z"/><circle class="f" cx="1712.85" cy="4217.41" r="4.5"/><path class="h" d="M1685.49,3964.31l7,1.39a.45.45,0,0,1,.23.76l-5.86,5.66a.45.45,0,0,1-.76-.25l-1.14-7A.46.46,0,0,1,1685.49,3964.31Z"/><circle class="f" cx="1691.5" cy="3971.11" r="4.5"/><path class="h" d="M1691,3984.15l-7-1.38a.46.46,0,0,1-.22-.77l5.85-5.66a.45.45,0,0,1,.76.26l1.14,7A.45.45,0,0,1,1691,3984.15Z"/><circle class="f" cx="1685.03" cy="3977.36" r="4.5"/><text class="b" transform="translate(1629.33 3992)">Merlo</text><path class="h" d="M1623,3902.65l7,1.39a.44.44,0,0,1,.22.76l-5.85,5.66a.45.45,0,0,1-.76-.25l-1.14-7A.45.45,0,0,1,1623,3902.65Z"/><circle class="f" cx="1628.97" cy="3909.45" r="4.5"/><path class="h" d="M1628.51,3922.49l-7-1.38a.45.45,0,0,1-.23-.77l5.86-5.66a.46.46,0,0,1,.76.26l1.14,7A.45.45,0,0,1,1628.51,3922.49Z"/><circle class="f" cx="1622.5" cy="3915.7" r="4.5"/><path class="h" d="M1587,3867.35l7,1.39a.44.44,0,0,1,.22.76l-5.85,5.66a.45.45,0,0,1-.76-.25l-1.14-7A.45.45,0,0,1,1587,3867.35Z"/><circle class="f" cx="1592.97" cy="3874.15" r="4.5"/><path class="h" d="M1592.51,3887.19l-7-1.38a.45.45,0,0,1-.23-.77l5.86-5.66a.46.46,0,0,1,.76.26l1.14,7A.45.45,0,0,1,1592.51,3887.19Z"/><circle class="f" cx="1586.5" cy="3880.4" r="4.5"/><path class="h" d="M1578.24,3833.85l4.07,5.86a.45.45,0,0,1-.37.71h-8.14a.44.44,0,0,1-.37-.7l4.07-5.86A.45.45,0,0,1,1578.24,3833.85Z"/><circle class="f" cx="1577.85" cy="3842.92" r="4.5"/><path class="h" d="M1568.45,3852l-4.07-5.86a.45.45,0,0,1,.37-.7h8.14a.45.45,0,0,1,.38.7l-4.08,5.86A.45.45,0,0,1,1568.45,3852Z"/><circle class="f" cx="1568.85" cy="3842.92" r="4.5"/><path class="h" d="M1578.24,3781.68l4.07,5.85a.45.45,0,0,1-.37.71h-8.14a.45.45,0,0,1-.37-.71l4.07-5.85A.45.45,0,0,1,1578.24,3781.68Z"/><circle class="f" cx="1577.85" cy="3790.74" r="4.5"/><path class="h" d="M1568.45,3799.81l-4.07-5.86a.45.45,0,0,1,.37-.71h8.14a.46.46,0,0,1,.38.71l-4.08,5.86A.46.46,0,0,1,1568.45,3799.81Z"/><circle class="f" cx="1568.85" cy="3790.74" r="4.5"/><path class="h" d="M1578.24,3708.68l4.07,5.85a.45.45,0,0,1-.37.71h-8.14a.45.45,0,0,1-.37-.71l4.07-5.85A.45.45,0,0,1,1578.24,3708.68Z"/><circle class="f" cx="1577.85" cy="3717.74" r="4.5"/><path class="h" d="M1568.45,3726.81l-4.07-5.86a.45.45,0,0,1,.37-.71h8.14a.46.46,0,0,1,.38.71l-4.08,5.86A.46.46,0,0,1,1568.45,3726.81Z"/><circle class="f" cx="1568.85" cy="3717.74" r="4.5"/><path class="h" d="M1674.86,3669.86l5.85-4.07a.45.45,0,0,1,.71.37v8.14a.45.45,0,0,1-.71.37l-5.85-4.07A.45.45,0,0,1,1674.86,3669.86Z"/><circle class="f" cx="1683.92" cy="3670.25" r="4.5"/><path class="h" d="M1693,3679.65l-5.86,4.07a.45.45,0,0,1-.71-.37v-8.14a.46.46,0,0,1,.71-.38l5.86,4.08A.46.46,0,0,1,1693,3679.65Z"/><circle class="f" cx="1683.92" cy="3679.25" r="4.5"/><text class="i" transform="translate(1653.33 3658.67)">Monoco</text><path class="h" d="M1746.14,3611l4.07,5.86a.45.45,0,0,1-.37.71h-8.14a.45.45,0,0,1-.37-.71l4.07-5.86A.46.46,0,0,1,1746.14,3611Z"/><circle class="f" cx="1745.75" cy="3620.08" r="4.5"/><path class="h" d="M1736.35,3629.14l-4.07-5.85a.45.45,0,0,1,.37-.71h8.14a.46.46,0,0,1,.38.71l-4.08,5.85A.45.45,0,0,1,1736.35,3629.14Z"/><circle class="f" cx="1736.75" cy="3620.08" r="4.5"/><text class="i" transform="translate(1601 3632)">Zaman-<tspan class="j" x="53.34" y="0">V</tspan><tspan x="62.24" y="0">orst Nat</tspan></text><text class="i" transform="translate(1592 3616)">Zaman-Forest Nat</text><path class="h" d="M1746.14,3544.35l4.07,5.85a.45.45,0,0,1-.37.71h-8.14a.45.45,0,0,1-.37-.71l4.07-5.85A.45.45,0,0,1,1746.14,3544.35Z"/><circle class="f" cx="1745.75" cy="3553.41" r="4.5"/><path class="h" d="M1736.35,3562.47l-4.07-5.85a.45.45,0,0,1,.37-.71h8.14a.46.46,0,0,1,.38.71l-4.08,5.85A.45.45,0,0,1,1736.35,3562.47Z"/><circle class="f" cx="1736.75" cy="3553.41" r="4.5"/><text class="i" transform="translate(1649.4 3565.33)">Kastanjes</text><text class="i" transform="translate(1639.5 3549.33)">Châtaignes</text><path class="h" d="M1746.14,3469.68l4.07,5.85a.45.45,0,0,1-.37.71h-8.14a.45.45,0,0,1-.37-.71l4.07-5.85A.45.45,0,0,1,1746.14,3469.68Z"/><circle class="f" cx="1745.75" cy="3478.74" r="4.5"/><path class="h" d="M1736.35,3487.81l-4.07-5.86a.45.45,0,0,1,.37-.71h8.14a.46.46,0,0,1,.38.71l-4.08,5.86A.46.46,0,0,1,1736.35,3487.81Z"/><circle class="f" cx="1736.75" cy="3478.74" r="4.5"/><text class="i" transform="translate(1678.1 3483.79)">Union</text><path class="h" d="M1746.14,3400.19l4.07,5.86a.45.45,0,0,1-.37.71h-8.14a.45.45,0,0,1-.37-.71l4.07-5.86A.46.46,0,0,1,1746.14,3400.19Z"/><circle class="f" cx="1745.75" cy="3409.26" r="4.5"/><path class="h" d="M1736.35,3418.32l-4.07-5.85a.45.45,0,0,1,.37-.71h8.14a.46.46,0,0,1,.38.71l-4.08,5.85A.45.45,0,0,1,1736.35,3418.32Z"/><circle class="f" cx="1736.75" cy="3409.26" r="4.5"/><path class="h" d="M1746.14,3325.68l4.07,5.85a.45.45,0,0,1-.37.71h-8.14a.45.45,0,0,1-.37-.71l4.07-5.85A.45.45,0,0,1,1746.14,3325.68Z"/><circle class="f" cx="1745.75" cy="3334.74" r="4.5"/><path class="h" d="M1736.35,3343.81l-4.07-5.86a.45.45,0,0,1,.37-.71h8.14a.46.46,0,0,1,.38.71l-4.08,5.86A.46.46,0,0,1,1736.35,3343.81Z"/><circle class="f" cx="1736.75" cy="3334.74" r="4.5"/><path class="h" d="M1746.14,3253.68l4.07,5.85a.45.45,0,0,1-.37.71h-8.14a.45.45,0,0,1-.37-.71l4.07-5.85A.45.45,0,0,1,1746.14,3253.68Z"/><circle class="f" cx="1745.75" cy="3262.74" r="4.5"/><path class="h" d="M1736.35,3271.81l-4.07-5.86a.45.45,0,0,1,.37-.71h8.14a.46.46,0,0,1,.38.71l-4.08,5.86A.46.46,0,0,1,1736.35,3271.81Z"/><circle class="f" cx="1736.75" cy="3262.74" r="4.5"/><path class="h" d="M1764.94,3172.68l4.07,5.85a.45.45,0,0,1-.37.71h-8.14a.45.45,0,0,1-.37-.71l4.07-5.85A.45.45,0,0,1,1764.94,3172.68Z"/><circle class="f" cx="1764.55" cy="3181.74" r="4.5"/><path class="h" d="M1755.15,3190.81l-4.07-5.86a.45.45,0,0,1,.37-.71h8.14a.46.46,0,0,1,.38.71l-4.08,5.86A.46.46,0,0,1,1755.15,3190.81Z"/><circle class="f" cx="1755.55" cy="3181.74" r="4.5"/><path class="h" d="M1764.94,3108.19l4.07,5.86a.45.45,0,0,1-.37.71h-8.14a.45.45,0,0,1-.37-.71l4.07-5.86A.46.46,0,0,1,1764.94,3108.19Z"/><circle class="f" cx="1764.55" cy="3117.26" r="4.5"/><path class="h" d="M1755.15,3126.32l-4.07-5.85a.45.45,0,0,1,.37-.71h8.14a.46.46,0,0,1,.38.71l-4.08,5.85A.45.45,0,0,1,1755.15,3126.32Z"/><circle class="f" cx="1755.55" cy="3117.26" r="4.5"/><path class="h" d="M1764.94,2983.68l4.07,5.85a.45.45,0,0,1-.37.71h-8.14a.45.45,0,0,1-.37-.71l4.07-5.85A.45.45,0,0,1,1764.94,2983.68Z"/><circle class="f" cx="1764.55" cy="2992.74" r="4.5"/><path class="h" d="M1755.15,3001.81l-4.07-5.86a.45.45,0,0,1,.37-.71h8.14a.46.46,0,0,1,.38.71l-4.08,5.86A.46.46,0,0,1,1755.15,3001.81Z"/><circle class="f" cx="1755.55" cy="2992.74" r="4.5"/><path class="h" d="M1764.94,2800.68l4.07,5.85a.45.45,0,0,1-.37.71h-8.14a.45.45,0,0,1-.37-.71l4.07-5.85A.45.45,0,0,1,1764.94,2800.68Z"/><circle class="f" cx="1764.55" cy="2809.74" r="4.5"/><path class="h" d="M1755.15,2818.81l-4.07-5.86a.45.45,0,0,1,.37-.71h8.14a.46.46,0,0,1,.38.71l-4.08,5.86A.46.46,0,0,1,1755.15,2818.81Z"/><circle class="f" cx="1755.55" cy="2809.74" r="4.5"/><path class="h" d="M1686.42,2709.47l6.94,1.62a.46.46,0,0,1,.2.78l-6,5.45a.45.45,0,0,1-.75-.28l-.89-7.08A.45.45,0,0,1,1686.42,2709.47Z"/><circle class="f" cx="1692.19" cy="2716.47" r="4.5"/><path class="h" d="M1691.27,2729.49l-6.94-1.63a.45.45,0,0,1-.2-.77l6-5.45a.45.45,0,0,1,.75.28l.89,7.07A.45.45,0,0,1,1691.27,2729.49Z"/><circle class="f" cx="1685.5" cy="2722.49" r="4.5"/><text class="i" transform="translate(1612.57 2752)">Bodegem</text><text class="i" transform="translate(1602.67 2736)">Bodeghem</text><path class="h" d="M1638.42,2657l6.94,1.63a.45.45,0,0,1,.2.77l-6,5.45a.45.45,0,0,1-.75-.28l-.89-7.07A.45.45,0,0,1,1638.42,2657Z"/><circle class="f" cx="1644.19" cy="2663.95" r="4.5"/><path class="h" d="M1643.27,2677l-6.94-1.62a.45.45,0,0,1-.2-.78l6-5.45a.45.45,0,0,1,.75.28l.89,7.08A.45.45,0,0,1,1643.27,2677Z"/><circle class="f" cx="1637.5" cy="2669.97" r="4.5"/><text class="i" transform="translate(1496 2699.49)">Anderlechtsepoort</text><text class="i" transform="translate(1496 2683.49)">Porte d&apos;Anderlecht</text><path class="h" d="M1605.92,2621.47l6.94,1.62a.46.46,0,0,1,.2.78l-6,5.45a.45.45,0,0,1-.75-.28l-.89-7.08A.45.45,0,0,1,1605.92,2621.47Z"/><circle class="f" cx="1611.69" cy="2628.47" r="4.5"/><path class="h" d="M1610.77,2641.49l-6.94-1.63a.45.45,0,0,1-.2-.77l6-5.45a.45.45,0,0,1,.75.28l.89,7.07A.45.45,0,0,1,1610.77,2641.49Z"/><circle class="f" cx="1605" cy="2634.49" r="4.5"/><text class="i" transform="translate(1498.67 2656)">Arts et Métiers</text><path class="h" d="M1480.35,2574.16l5.85-4.07a.45.45,0,0,1,.71.37v8.14a.45.45,0,0,1-.71.37l-5.85-4.07A.45.45,0,0,1,1480.35,2574.16Z"/><circle class="f" cx="1489.41" cy="2574.55" r="4.5"/><path class="h" d="M1498.47,2584l-5.85,4.07a.45.45,0,0,1-.71-.37v-8.14a.46.46,0,0,1,.71-.38l5.85,4.08A.45.45,0,0,1,1498.47,2584Z"/><circle class="f" cx="1489.41" cy="2583.55" r="4.5"/><text class="i" transform="translate(1457.49 2634.67)">Driehoek</text><text class="i" transform="translate(1461.49 2618.67)"><tspan class="g">T</tspan><tspan x="8.34" y="0">riangle</tspan></text><path class="h" d="M1357.68,2574.66l5.85-4.07a.45.45,0,0,1,.71.37v8.14a.45.45,0,0,1-.71.37l-5.85-4.07A.45.45,0,0,1,1357.68,2574.66Z"/><circle class="f" cx="1366.74" cy="2575.05" r="4.5"/><path class="h" d="M1375.81,2584.45l-5.86,4.07a.45.45,0,0,1-.71-.37V2580a.46.46,0,0,1,.71-.38l5.86,4.08A.46.46,0,0,1,1375.81,2584.45Z"/><circle class="f" cx="1366.74" cy="2584.05" r="4.5"/><text class="i" transform="translate(1376 2634.67)">Hertogin</text><text class="i" transform="translate(1376 2618.67)">Duchesse</text><path class="h" d="M1267,2575l5.86-4.07a.45.45,0,0,1,.71.37v8.14a.45.45,0,0,1-.71.37l-5.86-4.07A.45.45,0,0,1,1267,2575Z"/><circle class="f" cx="1276.08" cy="2575.37" r="4.5"/><path class="h" d="M1285.14,2584.77l-5.86,4.07a.45.45,0,0,1-.7-.37v-8.15a.45.45,0,0,1,.7-.37l5.86,4.08A.45.45,0,0,1,1285.14,2584.77Z"/><circle class="f" cx="1276.08" cy="2584.37" r="4.5"/><text class="i" transform="translate(1256 2634.99)"><tspan class="k">V</tspan><tspan x="9.74" y="0">ier </tspan><tspan class="l" x="32.26" y="0">W</tspan><tspan x="46.28" y="0">inden</tspan></text><text class="i" transform="translate(1250.67 2618.67)">Quatre <tspan class="g" x="52.51" y="0">V</tspan><tspan x="61.7" y="0">ents</tspan></text><path class="h" d="M1018.29,2442.86l4.07,5.85a.45.45,0,0,1-.37.71h-8.14a.45.45,0,0,1-.37-.71l4.07-5.85A.45.45,0,0,1,1018.29,2442.86Z"/><circle class="f" cx="1017.9" cy="2451.92" r="4.5"/><path class="h" d="M1008.5,2461l-4.07-5.86a.45.45,0,0,1,.37-.71H1013a.46.46,0,0,1,.37.71l-4.08,5.86A.46.46,0,0,1,1008.5,2461Z"/><circle class="f" cx="1008.9" cy="2451.92" r="4.5"/><text class="i" transform="translate(898.67 2456.97)">Joseph Baeck</text><path class="h" d="M1018.29,2373.68l4.07,5.85a.45.45,0,0,1-.37.71h-8.14a.45.45,0,0,1-.37-.71l4.07-5.85A.45.45,0,0,1,1018.29,2373.68Z"/><circle class="f" cx="1017.9" cy="2382.74" r="4.5"/><path class="h" d="M1008.5,2391.81l-4.07-5.86a.45.45,0,0,1,.37-.71h8.14a.46.46,0,0,1,.38.71l-4.08,5.86A.46.46,0,0,1,1008.5,2391.81Z"/><circle class="f" cx="1008.9" cy="2382.74" r="4.5"/><text class="i" transform="translate(917.33 2387.79)">Mannekens</text><path class="h" d="M1018.29,2301.68l4.07,5.85a.45.45,0,0,1-.37.71h-8.14a.45.45,0,0,1-.37-.71l4.07-5.85A.45.45,0,0,1,1018.29,2301.68Z"/><circle class="f" cx="1017.9" cy="2310.74" r="4.5"/><path class="h" d="M1008.5,2319.81l-4.07-5.86a.45.45,0,0,1,.37-.71h8.14a.46.46,0,0,1,.38.71l-4.08,5.86A.46.46,0,0,1,1008.5,2319.81Z"/><circle class="f" cx="1008.9" cy="2310.74" r="4.5"/><text class="i" transform="translate(930.67 2317.33)">Karreveld</text><path class="h" d="M933.53,2280.53l5.85-4.08a.46.46,0,0,1,.71.37V2285a.45.45,0,0,1-.71.37l-5.85-4.07A.45.45,0,0,1,933.53,2280.53Z"/><circle class="f" cx="942.59" cy="2280.92" r="4.5"/><path class="h" d="M951.65,2290.31l-5.85,4.07a.45.45,0,0,1-.71-.37v-8.14a.45.45,0,0,1,.71-.37l5.85,4.07A.45.45,0,0,1,951.65,2290.31Z"/><circle class="f" cx="942.59" cy="2289.92" r="4.5"/><text class="i" transform="translate(797.33 2256)">Cimetière de Molenbeek</text><text class="i" transform="translate(758.33 2269.33)">Begraafplaats van Molenbeek</text><path class="h" d="M629.68,2280.53l5.85-4.08a.46.46,0,0,1,.71.37V2285a.45.45,0,0,1-.71.37l-5.85-4.07A.45.45,0,0,1,629.68,2280.53Z"/><circle class="f" cx="638.74" cy="2280.92" r="4.5"/><path class="h" d="M647.81,2290.31l-5.86,4.07a.45.45,0,0,1-.71-.37v-8.14a.45.45,0,0,1,.71-.37l5.86,4.07A.46.46,0,0,1,647.81,2290.31Z"/><circle class="f" cx="638.74" cy="2289.92" r="4.5"/><text class="i" transform="translate(610.67 2269.33)"><tspan class="g">V</tspan><tspan x="9.18" y="0">an Zande</tspan></text><path class="h" d="M550.26,2224l7,1.13a.45.45,0,0,1,.25.76l-5.66,5.86a.46.46,0,0,1-.77-.23l-1.38-7A.45.45,0,0,1,550.26,2224Z"/><circle class="f" cx="556.5" cy="2230.58" r="4.5"/><path class="h" d="M556.5,2243.64l-7-1.14a.46.46,0,0,1-.26-.76l5.66-5.86a.45.45,0,0,1,.77.23l1.38,7A.45.45,0,0,1,556.5,2243.64Z"/><circle class="f" cx="550.25" cy="2237.06" r="4.5"/><text class="i" transform="translate(562.67 2224)">Genot</text><path class="h" d="M504.61,2178.67l7,1.14a.45.45,0,0,1,.25.76l-5.66,5.86a.46.46,0,0,1-.77-.23l-1.38-7A.46.46,0,0,1,504.61,2178.67Z"/><circle class="f" cx="510.85" cy="2185.25" r="4.5"/><path class="h" d="M510.85,2198.3l-7-1.13a.46.46,0,0,1-.26-.76l5.66-5.86a.45.45,0,0,1,.77.23l1.38,7A.44.44,0,0,1,510.85,2198.3Z"/><circle class="f" cx="504.6" cy="2191.73" r="4.5"/><text class="i" transform="translate(517.02 2178.67)">Schweitzer</text><path class="h" d="M415.91,2090.67l7,1.14a.45.45,0,0,1,.25.76l-5.66,5.86a.45.45,0,0,1-.77-.23l-1.38-7A.46.46,0,0,1,415.91,2090.67Z"/><circle class="f" cx="422.15" cy="2097.25" r="4.5"/><path class="h" d="M422.15,2110.3l-7-1.13a.46.46,0,0,1-.26-.76l5.66-5.86a.45.45,0,0,1,.77.23l1.38,7A.44.44,0,0,1,422.15,2110.3Z"/><circle class="f" cx="415.9" cy="2103.73" r="4.5"/><text class="i" transform="translate(347.4 2117.33)">Alcyons</text><path class="h" d="M340.49,2016l7,1.13a.45.45,0,0,1,.25.76l-5.66,5.86a.45.45,0,0,1-.76-.23l-1.39-7A.45.45,0,0,1,340.49,2016Z"/><circle class="f" cx="346.73" cy="2022.58" r="4.5"/><path class="h" d="M346.73,2035.64l-7-1.14a.45.45,0,0,1-.25-.76l5.65-5.86a.45.45,0,0,1,.77.23l1.38,7A.45.45,0,0,1,346.73,2035.64Z"/><circle class="f" cx="340.48" cy="2029.06" r="4.5"/><text class="i" transform="translate(185.9 2040)">Berchem-Shopping</text><text class="b" transform="translate(128 1965.33)">Berchem Station</text><rect class="c" x="238" y="1927" width="18" height="9" rx="0.84" ry="0.84"/><text class="d" transform="translate(230 1941.33)">82</text><circle class="e" cx="279.5" cy="1962.5" r="4.5"/><circle class="f" cx="279.5" cy="1962.5" r="4.5"/><path class="m" d="M1807,1834V2891.87a58.14,58.14,0,0,0,58.13,58.13h222.14a16.73,16.73,0,0,1,16.73,16.73v442.84a19,19,0,0,0,6.25,14.09l176.5,159.68a19,19,0,0,1,6.25,14.09v226.7a19,19,0,0,1-5.57,13.44l-222.86,222.86a19,19,0,0,1-13.44,5.57H1556a19,19,0,0,0-19,19v62"/><text class="b" transform="translate(1562 4152)">Stalle</text><rect class="m" x="1528" y="4177" width="18" height="9" rx="0.84" ry="0.84"/><text class="d" transform="translate(1529.16 4192)">4</text><circle class="e" cx="1537.1" cy="4142.5" r="4.5"/><circle class="f" cx="1537.1" cy="4142.5" r="4.5"/><path class="h" d="M1680.86,4060.75l6.06-3.76a.45.45,0,0,1,.69.41l-.42,8.13a.45.45,0,0,1-.73.33l-5.63-4.37A.45.45,0,0,1,1680.86,4060.75Z"/><circle class="f" cx="1689.89" cy="4061.62" r="4.5"/><path class="h" d="M1698.45,4071.47l-6.06,3.76a.45.45,0,0,1-.68-.41l.42-8.13a.45.45,0,0,1,.73-.33l5.63,4.37A.45.45,0,0,1,1698.45,4071.47Z"/><circle class="f" cx="1689.42" cy="4070.6" r="4.5"/><text class="b" transform="translate(1572 4025)">Carrefout Stalle</text><text class="b" transform="translate(1568 4041)">Kruispunt Stalle</text><path class="h" d="M1824.2,4060.75l6.06-3.76a.45.45,0,0,1,.69.41l-.43,8.13a.45.45,0,0,1-.73.33l-5.63-4.37A.45.45,0,0,1,1824.2,4060.75Z"/><circle class="f" cx="1833.23" cy="4061.62" r="4.5"/><path class="h" d="M1841.79,4071.47l-6.06,3.76a.45.45,0,0,1-.69-.4l.42-8.14a.45.45,0,0,1,.73-.33l5.64,4.37A.46.46,0,0,1,1841.79,4071.47Z"/><circle class="f" cx="1832.76" cy="4070.61" r="4.5"/><text class="b" transform="translate(1766 4041)">Egide <tspan class="g" x="51.01" y="0">V</tspan><tspan x="61.42" y="0">an Ophem</tspan></text><path class="h" d="M1956.2,4060.75l6.06-3.76a.45.45,0,0,1,.69.41l-.43,8.13a.45.45,0,0,1-.73.33l-5.63-4.37A.45.45,0,0,1,1956.2,4060.75Z"/><circle class="f" cx="1965.23" cy="4061.62" r="4.5"/><path class="h" d="M1973.79,4071.47l-6.06,3.76a.45.45,0,0,1-.69-.4l.42-8.14a.45.45,0,0,1,.73-.33l5.64,4.37A.46.46,0,0,1,1973.79,4071.47Z"/><circle class="f" cx="1964.76" cy="4070.61" r="4.5"/><text class="b" transform="translate(1934 4025)"><tspan class="n">W</tspan><tspan x="15.42" y="0">agon</tspan></text><text class="b" transform="translate(1934 4041)"><tspan class="n">W</tspan><tspan x="15.42" y="0">agen</tspan></text><path class="h" d="M2100.7,4018.09l.9-7.07a.44.44,0,0,1,.74-.28l6.06,5.45a.45.45,0,0,1-.2.77l-6.95,1.63A.46.46,0,0,1,2100.7,4018.09Z"/><circle class="f" cx="2107.06" cy="4011.62" r="4.5"/><path class="h" d="M2120.11,4011.17l-.9,7.07a.44.44,0,0,1-.74.28l-6.06-5.45a.45.45,0,0,1,.2-.77l6.95-1.63A.46.46,0,0,1,2120.11,4011.17Z"/><circle class="f" cx="2113.75" cy="4017.64" r="4.5"/><text class="b" transform="translate(2046 4005)">Globe</text><path class="h" d="M2297.88,3778.68l4.07,5.85a.45.45,0,0,1-.37.71h-8.14a.45.45,0,0,1-.37-.71l4.07-5.85A.45.45,0,0,1,2297.88,3778.68Z"/><circle class="f" cx="2297.49" cy="3787.74" r="4.5"/><path class="h" d="M2288.09,3796.81,2284,3791a.45.45,0,0,1,.37-.71h8.14a.46.46,0,0,1,.38.71l-4.08,5.86A.46.46,0,0,1,2288.09,3796.81Z"/><circle class="f" cx="2288.49" cy="3787.74" r="4.5"/><text class="b" transform="translate(2229.33 3785)">Héros</text><text class="b" transform="translate(2221.33 3801.17)">Helden</text><path class="h" d="M2297.88,3705.19l4.07,5.86a.45.45,0,0,1-.37.71h-8.14a.45.45,0,0,1-.37-.71l4.07-5.86A.46.46,0,0,1,2297.88,3705.19Z"/><circle class="f" cx="2297.49" cy="3714.26" r="4.5"/><path class="h" d="M2288.09,3723.32l-4.07-5.85a.45.45,0,0,1,.37-.71h8.14a.46.46,0,0,1,.38.71l-4.08,5.85A.45.45,0,0,1,2288.09,3723.32Z"/><circle class="f" cx="2288.49" cy="3714.26" r="4.5"/><text class="b" transform="translate(2186.67 3721.51)">Boetendael</text><path class="h" d="M2297.88,3646.68l4.07,5.85a.45.45,0,0,1-.37.71h-8.14a.45.45,0,0,1-.37-.71l4.07-5.85A.45.45,0,0,1,2297.88,3646.68Z"/><circle class="f" cx="2297.49" cy="3655.74" r="4.5"/><path class="h" d="M2288.09,3664.81,2284,3659a.45.45,0,0,1,.37-.71h8.14a.45.45,0,0,1,.37.71l-4.07,5.86A.46.46,0,0,1,2288.09,3664.81Z"/><circle class="f" cx="2288.49" cy="3655.74" r="4.5"/><text class="b" transform="translate(2202.67 3663)">Messidor</text><text class="b" transform="translate(2160 3608)"><tspan class="g">V</tspan><tspan x="10.41" y="0">anderkindere</tspan></text><path class="h" d="M2297.88,3592.35l4.07,5.85a.45.45,0,0,1-.37.71h-8.14a.45.45,0,0,1-.37-.71l4.07-5.85A.45.45,0,0,1,2297.88,3592.35Z"/><circle class="f" cx="2297.49" cy="3601.41" r="4.5"/><path class="h" d="M2288.09,3610.47l-4.07-5.85a.45.45,0,0,1,.37-.71h8.14a.46.46,0,0,1,.38.71l-4.08,5.85A.45.45,0,0,1,2288.09,3610.47Z"/><circle class="f" cx="2288.49" cy="3601.41" r="4.5"/><path class="h" d="M2159.52,3460l6.88,1.87a.45.45,0,0,1,.17.78l-6.23,5.24a.45.45,0,0,1-.74-.31l-.65-7.1A.46.46,0,0,1,2159.52,3460Z"/><circle class="f" cx="2165.04" cy="3467.19" r="4.5"/><path class="h" d="M2163.67,3480.17l-6.88-1.87a.45.45,0,0,1-.17-.78l6.24-5.23a.45.45,0,0,1,.74.3l.64,7.1A.45.45,0,0,1,2163.67,3480.17Z"/><circle class="f" cx="2158.15" cy="3472.97" r="4.5"/><text class="b" transform="translate(2198 3425)">Berkendael</text><text class="b" transform="translate(2198 3441)">Berkendaal</text><path class="h" d="M2108.89,3365.19l4.07,5.86a.45.45,0,0,1-.37.71h-8.14a.45.45,0,0,1-.37-.71l4.07-5.86A.46.46,0,0,1,2108.89,3365.19Z"/><circle class="f" cx="2108.5" cy="3374.26" r="4.5"/><path class="h" d="M2099.1,3383.32l-4.07-5.85a.45.45,0,0,1,.37-.71h8.14a.46.46,0,0,1,.38.71l-4.08,5.85A.45.45,0,0,1,2099.1,3383.32Z"/><circle class="f" cx="2099.5" cy="3374.26" r="4.5"/><text class="b" transform="translate(2033 3381.51)">Albert</text><path class="h" d="M2108.89,3118.68l4.07,5.85a.45.45,0,0,1-.37.71h-8.14a.45.45,0,0,1-.37-.71l4.07-5.85A.45.45,0,0,1,2108.89,3118.68Z"/><circle class="f" cx="2108.5" cy="3127.74" r="4.5"/><path class="h" d="M2099.1,3136.81,2095,3131a.45.45,0,0,1,.37-.71h8.14a.46.46,0,0,1,.38.71l-4.08,5.86A.46.46,0,0,1,2099.1,3136.81Z"/><circle class="f" cx="2099.5" cy="3127.74" r="4.5"/><text class="b" transform="translate(2038 3135)">Horta</text><path class="h" d="M2108.89,3030.68l4.07,5.85a.45.45,0,0,1-.37.71h-8.14a.45.45,0,0,1-.37-.71l4.07-5.85A.45.45,0,0,1,2108.89,3030.68Z"/><circle class="f" cx="2108.5" cy="3039.74" r="4.5"/><path class="h" d="M2099.1,3048.81,2095,3043a.45.45,0,0,1,.37-.71h8.14a.46.46,0,0,1,.38.71l-4.08,5.86A.46.46,0,0,1,2099.1,3048.81Z"/><circle class="f" cx="2099.5" cy="3039.74" r="4.5"/><text class="b" transform="translate(1900 3037)">Parvis de Saint-Guilles</text><text class="b" transform="translate(1928 3055)">Sint-Gillisvoorplein</text><path class="h" d="M1976.21,2944.83l6.06-3.76a.45.45,0,0,1,.69.41l-.42,8.13a.45.45,0,0,1-.73.33l-5.64-4.37A.46.46,0,0,1,1976.21,2944.83Z"/><circle class="f" cx="1985.24" cy="2945.7" r="4.5"/><path class="h" d="M1993.8,2955.55l-6.06,3.76a.45.45,0,0,1-.69-.41l.43-8.13a.45.45,0,0,1,.73-.33l5.63,4.37A.45.45,0,0,1,1993.8,2955.55Z"/><circle class="f" cx="1984.77" cy="2954.68" r="4.5"/><path class="h" d="M1852.21,2944.45l6.06-3.76a.45.45,0,0,1,.69.41l-.42,8.13a.45.45,0,0,1-.73.33l-5.64-4.37A.46.46,0,0,1,1852.21,2944.45Z"/><circle class="f" cx="1861.24" cy="2945.32" r="4.5"/><path class="h" d="M1869.8,2955.17l-6.06,3.76a.45.45,0,0,1-.69-.41l.43-8.13a.45.45,0,0,1,.73-.33l5.63,4.37A.45.45,0,0,1,1869.8,2955.17Z"/><circle class="f" cx="1860.77" cy="2954.3" r="4.5"/><path class="h" d="M1811.84,2800.68l4.07,5.85a.45.45,0,0,1-.37.71h-8.14a.45.45,0,0,1-.37-.71l4.07-5.85A.45.45,0,0,1,1811.84,2800.68Z"/><circle class="f" cx="1811.45" cy="2809.74" r="4.5"/><path class="h" d="M1802.05,2818.81,1798,2813a.45.45,0,0,1,.37-.71h8.14a.46.46,0,0,1,.38.71l-4.08,5.86A.46.46,0,0,1,1802.05,2818.81Z"/><circle class="f" cx="1802.45" cy="2809.74" r="4.5"/><text class="b" transform="translate(1645.33 2816)">Lemonnier</text><path class="h" d="M1811.84,2629.19l4.07,5.86a.45.45,0,0,1-.37.71h-8.14a.45.45,0,0,1-.37-.71l4.07-5.86A.46.46,0,0,1,1811.84,2629.19Z"/><circle class="f" cx="1811.45" cy="2638.26" r="4.5"/><path class="h" d="M1802.05,2647.32l-4.07-5.85a.45.45,0,0,1,.37-.71h8.15a.46.46,0,0,1,.37.71l-4.08,5.85A.45.45,0,0,1,1802.05,2647.32Z"/><circle class="f" cx="1802.45" cy="2638.26" r="4.5"/><text class="o" transform="translate(1690 2641.76) scale(1.13 1)">Anneessens</text><path class="h" d="M1811.94,2433.19l4.07,5.86a.45.45,0,0,1-.37.71h-8.14a.45.45,0,0,1-.37-.71l4.07-5.86A.46.46,0,0,1,1811.94,2433.19Z"/><circle class="f" cx="1811.55" cy="2442.26" r="4.5"/><path class="h" d="M1802.15,2451.32l-4.07-5.85a.45.45,0,0,1,.37-.71h8.14a.46.46,0,0,1,.38.71l-4.08,5.85A.45.45,0,0,1,1802.15,2451.32Z"/><circle class="f" cx="1802.55" cy="2442.26" r="4.5"/><text class="o" transform="translate(1733.33 2441.76) scale(1.13 1)">Bourse</text><text class="o" transform="translate(1743.33 2457.76) scale(1.13 1)">Beurs</text><path class="h" d="M1811.84,2215.68l4.07,5.85a.45.45,0,0,1-.37.71h-8.14a.45.45,0,0,1-.37-.71l4.07-5.85A.45.45,0,0,1,1811.84,2215.68Z"/><circle class="f" cx="1811.45" cy="2224.74" r="4.5"/><path class="h" d="M1802.05,2233.81,1798,2228a.45.45,0,0,1,.37-.71h8.14a.46.46,0,0,1,.38.71l-4.08,5.86A.46.46,0,0,1,1802.05,2233.81Z"/><circle class="f" cx="1802.45" cy="2224.74" r="4.5"/><path class="h" d="M1811.84,1954.68l4.07,5.85a.45.45,0,0,1-.37.71h-8.14a.45.45,0,0,1-.37-.71l4.07-5.85A.45.45,0,0,1,1811.84,1954.68Z"/><circle class="f" cx="1811.45" cy="1963.74" r="4.5"/><path class="h" d="M1802.05,1972.81,1798,1967a.45.45,0,0,1,.37-.71h8.14a.46.46,0,0,1,.38.71l-4.08,5.86A.46.46,0,0,1,1802.05,1972.81Z"/><circle class="f" cx="1802.45" cy="1963.74" r="4.5"/><circle class="e" cx="1807.1" cy="1837.5" r="4.5"/><circle class="f" cx="1807.1" cy="1837.5" r="4.5"/><text class="o" transform="translate(1848 1833) scale(1.13 1)">Gare du Nord</text><text class="o" transform="translate(1848 1849) scale(1.13 1)">Nordstation</text><path class="p" d="M1368,816h160.48a96.06,96.06,0,0,1,67.6,27.82L1972.74,1217a43.82,43.82,0,0,1,.14,62.1l-249.46,249.46a33.13,33.13,0,0,0,0,46.84l98.72,98.72A33.68,33.68,0,0,1,1832,1698V2892.8a31.2,31.2,0,0,0,31.2,31.2h183.85c83.62,1,83.62,1,83.14,83.61l.48,383.06c0,8,.72,16.43,6.67,21.86l166.34,151.87a29,29,0,0,0,19.59,7.6H2412"/><path class="q" d="M2301.5,3601h6.13a13.89,13.89,0,0,0,14.07-13.7v-6"/><rect class="r" x="2392" y="3600" width="18" height="9" rx="0.84" ry="0.84"/><text class="d" transform="translate(2393.16 3615)">3</text><rect class="r" x="1362.67" y="841" width="18" height="9" rx="0.84" ry="0.84"/><text class="d" transform="translate(1363.83 856)">3</text><circle class="e" cx="2407.17" cy="3572.5" r="4.5"/><circle class="f" cx="2407.17" cy="3572.5" r="4.5"/><text class="o" transform="translate(2368 3554.67) scale(1.13 1)">Churchill</text><path class="h" d="M2312.86,3566.65l6.06-3.76a.45.45,0,0,1,.69.41l-.42,8.13a.45.45,0,0,1-.73.33l-5.63-4.37A.45.45,0,0,1,2312.86,3566.65Z"/><circle class="f" cx="2321.89" cy="3567.52" r="4.5"/><path class="h" d="M2330.45,3577.37l-6.06,3.76a.45.45,0,0,1-.68-.41l.42-8.13a.45.45,0,0,1,.73-.33l5.63,4.37A.45.45,0,0,1,2330.45,3577.37Z"/><circle class="f" cx="2321.42" cy="3576.5" r="4.5"/><path class="h" d="M2177.46,3441.64l7,1.38a.45.45,0,0,1,.22.77l-5.86,5.65a.44.44,0,0,1-.75-.25l-1.14-7A.45.45,0,0,1,2177.46,3441.64Z"/><circle class="f" cx="2183.47" cy="3448.43" r="4.5"/><path class="h" d="M2183,3461.48l-7-1.39a.45.45,0,0,1-.23-.76l5.86-5.66a.45.45,0,0,1,.76.25l1.13,7A.45.45,0,0,1,2183,3461.48Z"/><circle class="f" cx="2177" cy="3454.68" r="4.5"/><path class="h" d="M2135.54,3365.19l4.07,5.86a.45.45,0,0,1-.37.71h-8.14a.45.45,0,0,1-.37-.71l4.07-5.86A.46.46,0,0,1,2135.54,3365.19Z"/><circle class="f" cx="2135.15" cy="3374.26" r="4.5"/><path class="h" d="M2125.75,3383.32l-4.07-5.85a.45.45,0,0,1,.37-.71h8.14a.46.46,0,0,1,.38.71l-4.08,5.85A.45.45,0,0,1,2125.75,3383.32Z"/><circle class="f" cx="2126.15" cy="3374.26" r="4.5"/><path class="h" d="M2135.24,3118.68l4.07,5.85a.45.45,0,0,1-.37.71h-8.14a.45.45,0,0,1-.37-.71l4.07-5.85A.45.45,0,0,1,2135.24,3118.68Z"/><circle class="f" cx="2134.85" cy="3127.74" r="4.5"/><path class="h" d="M2125.45,3136.81l-4.07-5.86a.45.45,0,0,1,.37-.71h8.14a.46.46,0,0,1,.38.71l-4.08,5.86A.46.46,0,0,1,2125.45,3136.81Z"/><circle class="f" cx="2125.85" cy="3127.74" r="4.5"/><path class="h" d="M2135.14,3030.68l4.07,5.85a.45.45,0,0,1-.37.71h-8.14a.45.45,0,0,1-.37-.71l4.07-5.85A.45.45,0,0,1,2135.14,3030.68Z"/><circle class="f" cx="2134.75" cy="3039.74" r="4.5"/><path class="h" d="M2125.35,3048.81l-4.07-5.86a.45.45,0,0,1,.37-.71h8.14a.46.46,0,0,1,.38.71l-4.08,5.86A.46.46,0,0,1,2125.35,3048.81Z"/><circle class="f" cx="2125.75" cy="3039.74" r="4.5"/><path class="h" d="M1852.21,2918.49l6.06-3.75a.45.45,0,0,1,.69.4l-.42,8.13a.45.45,0,0,1-.73.34l-5.64-4.38A.46.46,0,0,1,1852.21,2918.49Z"/><circle class="f" cx="1861.24" cy="2919.36" r="4.5"/><path class="h" d="M1869.8,2929.22l-6.06,3.76a.46.46,0,0,1-.69-.41l.43-8.13a.45.45,0,0,1,.73-.33l5.63,4.37A.45.45,0,0,1,1869.8,2929.22Z"/><circle class="f" cx="1860.77" cy="2928.35" r="4.5"/><path class="h" d="M1976.21,2918.78l6.06-3.76a.46.46,0,0,1,.69.41l-.42,8.13a.45.45,0,0,1-.73.33l-5.64-4.37A.46.46,0,0,1,1976.21,2918.78Z"/><circle class="f" cx="1985.24" cy="2919.65" r="4.5"/><path class="h" d="M1993.8,2929.51l-6.06,3.75a.45.45,0,0,1-.69-.4l.43-8.13a.45.45,0,0,1,.73-.34l5.63,4.38A.45.45,0,0,1,1993.8,2929.51Z"/><circle class="f" cx="1984.77" cy="2928.64" r="4.5"/><path class="h" d="M1836.94,2800.68l4.07,5.85a.45.45,0,0,1-.37.71h-8.14a.45.45,0,0,1-.37-.71l4.07-5.85A.45.45,0,0,1,1836.94,2800.68Z"/><circle class="f" cx="1836.55" cy="2809.74" r="4.5"/><path class="h" d="M1827.15,2818.81l-4.07-5.86a.45.45,0,0,1,.37-.71h8.14a.46.46,0,0,1,.38.71l-4.08,5.86A.46.46,0,0,1,1827.15,2818.81Z"/><circle class="f" cx="1827.55" cy="2809.74" r="4.5"/><path class="h" d="M1836.94,2629.19l4.07,5.86a.45.45,0,0,1-.37.71h-8.14a.45.45,0,0,1-.37-.71l4.07-5.86A.46.46,0,0,1,1836.94,2629.19Z"/><circle class="f" cx="1836.55" cy="2638.26" r="4.5"/><path class="h" d="M1827.15,2647.32l-4.07-5.85a.45.45,0,0,1,.37-.71h8.14a.46.46,0,0,1,.38.71l-4.08,5.85A.45.45,0,0,1,1827.15,2647.32Z"/><circle class="f" cx="1827.55" cy="2638.26" r="4.5"/><path class="h" d="M1836.94,2433.19l4.07,5.86a.45.45,0,0,1-.37.71h-8.14a.45.45,0,0,1-.37-.71l4.07-5.86A.46.46,0,0,1,1836.94,2433.19Z"/><circle class="f" cx="1836.55" cy="2442.26" r="4.5"/><path class="h" d="M1827.15,2451.32l-4.07-5.85a.45.45,0,0,1,.37-.71h8.14a.46.46,0,0,1,.38.71l-4.08,5.85A.45.45,0,0,1,1827.15,2451.32Z"/><circle class="f" cx="1827.55" cy="2442.26" r="4.5"/><path class="h" d="M1836.94,2215.68l4.07,5.85a.45.45,0,0,1-.37.71h-8.14a.45.45,0,0,1-.37-.71l4.07-5.85A.45.45,0,0,1,1836.94,2215.68Z"/><circle class="f" cx="1836.55" cy="2224.74" r="4.5"/><path class="h" d="M1827.15,2233.81l-4.07-5.86a.45.45,0,0,1,.37-.71h8.14a.46.46,0,0,1,.38.71l-4.08,5.86A.46.46,0,0,1,1827.15,2233.81Z"/><circle class="f" cx="1827.55" cy="2224.74" r="4.5"/><path class="h" d="M1836.94,1954.68l4.07,5.85a.45.45,0,0,1-.37.71h-8.14a.45.45,0,0,1-.37-.71l4.07-5.85A.45.45,0,0,1,1836.94,1954.68Z"/><circle class="f" cx="1836.55" cy="1963.74" r="4.5"/><path class="h" d="M1827.15,1972.81l-4.07-5.86a.45.45,0,0,1,.37-.71h8.14a.46.46,0,0,1,.38.71l-4.08,5.86A.46.46,0,0,1,1827.15,1972.81Z"/><circle class="f" cx="1827.55" cy="1963.74" r="4.5"/><path class="h" d="M1836.94,1828.28l4.07,5.85a.45.45,0,0,1-.37.71h-8.14a.45.45,0,0,1-.37-.71l4.07-5.85A.45.45,0,0,1,1836.94,1828.28Z"/><circle class="f" cx="1836.55" cy="1837.34" r="4.5"/><path class="h" d="M1827.15,1846.41l-4.07-5.86a.45.45,0,0,1,.37-.71h8.14a.46.46,0,0,1,.38.71l-4.08,5.86A.46.46,0,0,1,1827.15,1846.41Z"/><circle class="f" cx="1827.55" cy="1837.34" r="4.5"/><path class="h" d="M1836.94,1744.19l4.07,5.86a.45.45,0,0,1-.37.71h-8.14a.45.45,0,0,1-.37-.71l4.07-5.86A.46.46,0,0,1,1836.94,1744.19Z"/><circle class="f" cx="1836.55" cy="1753.26" r="4.5"/><path class="h" d="M1827.15,1762.32l-4.07-5.85a.45.45,0,0,1,.37-.71h8.14a.46.46,0,0,1,.38.71l-4.08,5.85A.45.45,0,0,1,1827.15,1762.32Z"/><circle class="f" cx="1827.55" cy="1753.26" r="4.5"/><text class="o" transform="translate(1749.33 1758.76) scale(1.13 1)">Thomas</text><path class="h" d="M1784.72,1628.32l6.82,2.1a.46.46,0,0,1,.14.79l-6.42,5a.44.44,0,0,1-.72-.33l-.4-7.12A.44.44,0,0,1,1784.72,1628.32Z"/><circle class="f" cx="1789.99" cy="1635.7" r="4.5"/><path class="h" d="M1788.17,1648.63l-6.81-2.11a.46.46,0,0,1-.15-.79l6.42-5a.45.45,0,0,1,.73.33l.39,7.12A.45.45,0,0,1,1788.17,1648.63Z"/><circle class="f" cx="1782.9" cy="1641.24" r="4.5"/><text class="o" transform="translate(1800 1632) scale(1.13 1)">Masui</text><path class="h" d="M1728.12,1571.67l6.82,2.11a.45.45,0,0,1,.14.78l-6.42,5a.45.45,0,0,1-.72-.33l-.4-7.12A.45.45,0,0,1,1728.12,1571.67Z"/><circle class="f" cx="1733.39" cy="1579.05" r="4.5"/><path class="h" d="M1731.57,1592l-6.81-2.11a.45.45,0,0,1-.15-.78l6.42-5a.45.45,0,0,1,.73.33l.39,7.12A.45.45,0,0,1,1731.57,1592Z"/><circle class="f" cx="1726.3" cy="1584.6" r="4.5"/><text class="o" transform="translate(1741.33 1557.33) scale(1.13 1)">Jules De <tspan class="s" x="0" y="18">T</tspan><tspan x="8.37" y="18">rooz</tspan></text><path class="h" d="M1912.71,1344.7l-.52,7.11a.45.45,0,0,1-.73.32l-6.33-5.12a.46.46,0,0,1,.16-.79l6.85-2A.44.44,0,0,1,1912.71,1344.7Z"/><circle class="f" cx="1906.71" cy="1351.5" r="4.5"/><path class="h" d="M1893.7,1352.63l.52-7.11a.45.45,0,0,1,.74-.32l6.32,5.12a.45.45,0,0,1-.15.79l-6.85,2A.46.46,0,0,1,1893.7,1352.63Z"/><circle class="f" cx="1899.71" cy="1345.83" r="4.5"/><text class="o" transform="translate(1912 1368) scale(1.13 1)">Docks Bruxsel</text><path class="h" d="M1813.61,1443.88l-.52,7.11a.45.45,0,0,1-.73.32l-6.33-5.12a.46.46,0,0,1,.16-.79l6.85-2A.44.44,0,0,1,1813.61,1443.88Z"/><circle class="f" cx="1807.61" cy="1450.68" r="4.5"/><path class="h" d="M1794.6,1451.81l.52-7.11a.45.45,0,0,1,.74-.32l6.32,5.12a.45.45,0,0,1-.15.79l-6.85,2A.46.46,0,0,1,1794.6,1451.81Z"/><circle class="f" cx="1800.61" cy="1445.01" r="4.5"/><text class="o" transform="translate(1818.28 1461.33) scale(1.13 1)">Mabru</text><path class="h" d="M1955.44,1192l6.92,1.75a.45.45,0,0,1,.18.78l-6.14,5.34a.45.45,0,0,1-.75-.29l-.77-7.09A.46.46,0,0,1,1955.44,1192Z"/><circle class="f" cx="1961.09" cy="1199.11" r="4.5"/><path class="h" d="M1960,1212.12l-6.91-1.75a.45.45,0,0,1-.19-.78l6.15-5.34a.45.45,0,0,1,.74.29l.77,7.09A.46.46,0,0,1,1960,1212.12Z"/><circle class="f" cx="1954.3" cy="1205.02" r="4.5"/><text class="o" transform="translate(1861.33 1221.33) scale(1.13 1)"><tspan class="s">V</tspan><tspan x="9.21" y="0">an Praet</tspan></text><path class="h" d="M1872,1109.35l6.92,1.74a.45.45,0,0,1,.18.78l-6.14,5.34a.45.45,0,0,1-.75-.29l-.77-7.09A.45.45,0,0,1,1872,1109.35Z"/><circle class="f" cx="1877.64" cy="1116.45" r="4.5"/><path class="h" d="M1876.5,1129.45l-6.91-1.75a.45.45,0,0,1-.19-.78l6.15-5.34a.45.45,0,0,1,.74.29l.77,7.09A.45.45,0,0,1,1876.5,1129.45Z"/><circle class="f" cx="1870.85" cy="1122.35" r="4.5"/><text class="o" transform="translate(1773.33 1141.33) scale(1.13 1)">Heembeek</text><path class="h" d="M1743,981.35l6.91,1.74a.45.45,0,0,1,.19.78l-6.15,5.34a.45.45,0,0,1-.74-.29l-.77-7.09A.45.45,0,0,1,1743,981.35Z"/><circle class="f" cx="1748.61" cy="988.45" r="4.5"/><path class="h" d="M1747.47,1001.45l-6.92-1.75a.45.45,0,0,1-.18-.78l6.14-5.34a.45.45,0,0,1,.75.29l.76,7.09A.44.44,0,0,1,1747.47,1001.45Z"/><circle class="f" cx="1741.82" cy="994.35" r="4.5"/><text class="o" transform="translate(1754.67 960) scale(1.13 1)">Buissonnets<tspan x="0" y="16">Braambosjes</tspan></text><path class="h" d="M1683.54,922.68l6.92,1.75a.45.45,0,0,1,.18.78l-6.14,5.34a.45.45,0,0,1-.75-.29l-.77-7.09A.45.45,0,0,1,1683.54,922.68Z"/><circle class="f" cx="1689.19" cy="929.78" r="4.5"/><path class="h" d="M1688.05,942.78l-6.91-1.75a.44.44,0,0,1-.19-.77l6.15-5.35a.45.45,0,0,1,.74.3l.77,7.09A.45.45,0,0,1,1688.05,942.78Z"/><circle class="f" cx="1682.4" cy="935.68" r="4.5"/><text class="o" transform="translate(1698.67 920) scale(1.13 1)">Aruacaria</text><path class="h" d="M1603,842.78l6.91,1.75a.46.46,0,0,1,.19.78l-6.15,5.34a.45.45,0,0,1-.74-.29l-.77-7.09A.45.45,0,0,1,1603,842.78Z"/><circle class="f" cx="1608.63" cy="849.88" r="4.5"/><path class="h" d="M1607.48,862.89l-6.91-1.75a.46.46,0,0,1-.19-.78l6.15-5.34a.45.45,0,0,1,.74.29l.77,7.09A.45.45,0,0,1,1607.48,862.89Z"/><circle class="f" cx="1601.83" cy="855.79" r="4.5"/><text class="o" transform="translate(1618.1 840.1) scale(1.13 1)">De <tspan class="t" x="23.42" y="0">W</tspan><tspan x="37.07" y="0">and</tspan></text><circle class="e" cx="1371.5" cy="816.2" r="4.5"/><circle class="f" cx="1371.5" cy="816.2" r="4.5"/><text class="o" transform="translate(1331.5 798.17) scale(1.13 1)">Esplanade</text><path class="u" d="M1718.91,2988v441.74a26.26,26.26,0,0,1-26.26,26.26H1660a31.68,31.68,0,0,0-22.42,9.29l-78,78a39.87,39.87,0,0,0-11.68,28.2v287.06a27.56,27.56,0,0,0,8.07,19.49l59.44,59.45a13.17,13.17,0,0,1-9.31,22.48H1296.93a28,28,0,0,0-28,28v647"/><rect class="u" x="1223.91" y="4626" width="18" height="9" rx="0.84" ry="0.84"/><text class="d" transform="translate(1216.41 4641)">50</text><circle class="e" cx="1269.01" cy="4630.5" r="4.5"/><circle class="f" cx="1269.01" cy="4630.5" r="4.5"/><text class="b" transform="translate(1284.91 4636.82)">Lot Station</text><text class="b" transform="translate(1284.91 4577.82)">Station Lot </text><path class="h" d="M1273.8,4562.94l4.07,5.85a.45.45,0,0,1-.37.71h-8.14a.45.45,0,0,1-.37-.71l4.07-5.85A.45.45,0,0,1,1273.8,4562.94Z"/><circle class="f" cx="1273.41" cy="4572" r="4.5"/><path class="h" d="M1264,4581.06l-4.07-5.85a.45.45,0,0,1,.37-.71h8.14a.45.45,0,0,1,.37.71l-4.07,5.85A.45.45,0,0,1,1264,4581.06Z"/><circle class="f" cx="1264.41" cy="4572" r="4.5"/><path class="h" d="M1273.8,4505.68l4.07,5.85a.45.45,0,0,1-.37.71h-8.14a.45.45,0,0,1-.37-.71l4.07-5.85A.45.45,0,0,1,1273.8,4505.68Z"/><circle class="f" cx="1273.41" cy="4514.74" r="4.5"/><path class="h" d="M1264,4523.81l-4.07-5.86a.45.45,0,0,1,.37-.71h8.14a.45.45,0,0,1,.37.71l-4.07,5.86A.46.46,0,0,1,1264,4523.81Z"/><circle class="f" cx="1264.41" cy="4514.74" r="4.5"/><text class="b" transform="translate(1284.91 4520.82)"><tspan class="n">W</tspan><tspan x="15.42" y="0">aterbury</tspan></text><path class="h" d="M1273.8,4445.68l4.07,5.85a.45.45,0,0,1-.37.71h-8.14a.45.45,0,0,1-.37-.71l4.07-5.85A.45.45,0,0,1,1273.8,4445.68Z"/><circle class="f" cx="1273.41" cy="4454.74" r="4.5"/><path class="h" d="M1264,4463.81l-4.07-5.86a.45.45,0,0,1,.37-.71h8.14a.45.45,0,0,1,.37.71l-4.07,5.86A.46.46,0,0,1,1264,4463.81Z"/><circle class="f" cx="1264.41" cy="4454.74" r="4.5"/><text class="b" transform="translate(1285.91 4460.82)"><tspan class="n">W</tspan><tspan x="15.42" y="0">aterbury</tspan></text><path class="h" d="M1273.8,4388.19l4.07,5.86a.45.45,0,0,1-.37.71h-8.14a.45.45,0,0,1-.37-.71l4.07-5.86A.46.46,0,0,1,1273.8,4388.19Z"/><circle class="f" cx="1273.41" cy="4397.26" r="4.5"/><path class="h" d="M1264,4406.32l-4.07-5.85a.45.45,0,0,1,.37-.71h8.14a.45.45,0,0,1,.37.71l-4.07,5.85A.45.45,0,0,1,1264,4406.32Z"/><circle class="f" cx="1264.41" cy="4397.26" r="4.5"/><text class="b" transform="translate(1285.91 4403.34)"><tspan class="j">V</tspan><tspan x="10.09" y="0">oetbalclub</tspan></text><path class="h" d="M1273.8,4329.68l4.07,5.85a.45.45,0,0,1-.37.71h-8.14a.45.45,0,0,1-.37-.71l4.07-5.85A.45.45,0,0,1,1273.8,4329.68Z"/><circle class="f" cx="1273.41" cy="4338.74" r="4.5"/><path class="h" d="M1264,4347.81l-4.07-5.86a.45.45,0,0,1,.37-.71h8.14a.45.45,0,0,1,.37.71l-4.07,5.86A.46.46,0,0,1,1264,4347.81Z"/><circle class="f" cx="1264.41" cy="4338.74" r="4.5"/><text class="b" transform="translate(1285.91 4344.82)">Kapel Ruisbroek</text><path class="h" d="M1273.8,4272.19l4.07,5.86a.45.45,0,0,1-.37.71h-8.14a.45.45,0,0,1-.37-.71l4.07-5.86A.46.46,0,0,1,1273.8,4272.19Z"/><circle class="f" cx="1273.41" cy="4281.26" r="4.5"/><path class="h" d="M1264,4290.32l-4.07-5.85a.45.45,0,0,1,.37-.71h8.14a.45.45,0,0,1,.37.71l-4.07,5.85A.45.45,0,0,1,1264,4290.32Z"/><circle class="f" cx="1264.41" cy="4281.26" r="4.5"/><text class="b" transform="translate(1285.91 4287.34)">Sportcentrum Ruisbroek</text><path class="h" d="M1273.8,4213.68l4.07,5.85a.45.45,0,0,1-.37.71h-8.14a.45.45,0,0,1-.37-.71l4.07-5.85A.45.45,0,0,1,1273.8,4213.68Z"/><circle class="f" cx="1273.41" cy="4222.74" r="4.5"/><path class="h" d="M1264,4231.81l-4.07-5.86a.45.45,0,0,1,.37-.71h8.14a.45.45,0,0,1,.37.71l-4.07,5.86A.46.46,0,0,1,1264,4231.81Z"/><circle class="f" cx="1264.41" cy="4222.74" r="4.5"/><text class="b" transform="translate(1285.91 4228.82)">Ruisbroek Centrum</text><path class="h" d="M1273.8,4156.19l4.07,5.86a.45.45,0,0,1-.37.71h-8.14a.45.45,0,0,1-.37-.71l4.07-5.86A.46.46,0,0,1,1273.8,4156.19Z"/><circle class="f" cx="1273.41" cy="4165.26" r="4.5"/><path class="h" d="M1264,4174.32l-4.07-5.85a.45.45,0,0,1,.37-.71h8.14a.45.45,0,0,1,.37.71l-4.07,5.85A.45.45,0,0,1,1264,4174.32Z"/><circle class="f" cx="1264.41" cy="4165.26" r="4.5"/><text class="b" transform="translate(1285.91 4171.34)">Kerk Ruisbroek</text><path class="h" d="M1309.1,3955.16l5.85-4.07a.45.45,0,0,1,.71.37v8.14a.45.45,0,0,1-.71.37l-5.85-4.07A.45.45,0,0,1,1309.1,3955.16Z"/><circle class="f" cx="1318.16" cy="3955.55" r="4.5"/><path class="h" d="M1327.23,3965l-5.86,4.07a.45.45,0,0,1-.71-.37v-8.14a.46.46,0,0,1,.71-.38l5.86,4.08A.46.46,0,0,1,1327.23,3965Z"/><circle class="f" cx="1318.16" cy="3964.55" r="4.5"/><text class="b" transform="translate(1292.91 3988)">Gilson</text><path class="h" d="M1410.59,3955.16l5.85-4.07a.45.45,0,0,1,.71.37v8.14a.45.45,0,0,1-.71.37l-5.85-4.07A.45.45,0,0,1,1410.59,3955.16Z"/><circle class="f" cx="1419.65" cy="3955.55" r="4.5"/><path class="h" d="M1428.71,3965l-5.85,4.07a.45.45,0,0,1-.71-.37v-8.14a.45.45,0,0,1,.71-.37l5.85,4.07A.45.45,0,0,1,1428.71,3965Z"/><circle class="f" cx="1419.65" cy="3964.55" r="4.5"/><text class="b" transform="translate(1376.91 4004)">Langestraat</text><text class="b" transform="translate(1376.91 3988)">Rue Longe</text><path class="h" d="M1510.59,3955.16l5.85-4.07a.45.45,0,0,1,.71.37v8.14a.45.45,0,0,1-.71.37l-5.85-4.07A.45.45,0,0,1,1510.59,3955.16Z"/><circle class="f" cx="1519.65" cy="3955.55" r="4.5"/><path class="h" d="M1528.71,3965l-5.85,4.07a.45.45,0,0,1-.71-.37v-8.14a.45.45,0,0,1,.71-.37l5.85,4.07A.45.45,0,0,1,1528.71,3965Z"/><circle class="f" cx="1519.65" cy="3964.55" r="4.5"/><text class="b" transform="translate(1496.91 4004)">Ukkel Sport</text><text class="b" transform="translate(1496.91 3988)">Uccle Sport</text><path class="h" d="M1605.51,3920.47l7,1.38a.45.45,0,0,1,.23.77l-5.86,5.66a.46.46,0,0,1-.76-.26l-1.13-7A.45.45,0,0,1,1605.51,3920.47Z"/><circle class="f" cx="1611.52" cy="3927.26" r="4.5"/><path class="h" d="M1611.06,3940.31l-7-1.38a.46.46,0,0,1-.22-.77l5.86-5.66a.44.44,0,0,1,.75.25l1.14,7A.45.45,0,0,1,1611.06,3940.31Z"/><circle class="f" cx="1605.05" cy="3933.52" r="4.5"/><text class="b" transform="translate(1508.91 3942.82)">Neerstalle</text><path class="h" d="M1568.91,3884l7,1.38a.45.45,0,0,1,.23.77l-5.86,5.66a.46.46,0,0,1-.76-.26l-1.13-7A.45.45,0,0,1,1568.91,3884Z"/><circle class="f" cx="1574.92" cy="3890.8" r="4.5"/><path class="h" d="M1574.46,3903.85l-7-1.39a.45.45,0,0,1-.22-.76l5.86-5.66a.44.44,0,0,1,.75.25l1.14,7A.45.45,0,0,1,1574.46,3903.85Z"/><circle class="f" cx="1568.45" cy="3897.05" r="4.5"/><text class="b" transform="translate(1496.91 3906.36)">Bempt</text><path class="h" d="M1552.82,3833.85l4.07,5.86a.45.45,0,0,1-.37.71h-8.14a.45.45,0,0,1-.37-.71l4.07-5.86A.45.45,0,0,1,1552.82,3833.85Z"/><circle class="f" cx="1552.43" cy="3842.92" r="4.5"/><path class="h" d="M1543,3852l-4.08-5.86a.45.45,0,0,1,.37-.7h8.15a.45.45,0,0,1,.37.7l-4.07,5.86A.45.45,0,0,1,1543,3852Z"/><circle class="f" cx="1543.43" cy="3842.92" r="4.5"/><text class="b" transform="translate(1436.91 3848)">Max <tspan class="n" x="37.79" y="0">W</tspan><tspan x="53.22" y="0">aller</tspan></text><path class="h" d="M1552.82,3781.68l4.07,5.85a.45.45,0,0,1-.37.71h-8.14a.45.45,0,0,1-.37-.71l4.07-5.85A.45.45,0,0,1,1552.82,3781.68Z"/><circle class="f" cx="1552.43" cy="3790.74" r="4.5"/><path class="h" d="M1543,3799.81,1539,3794a.46.46,0,0,1,.37-.71h8.15a.45.45,0,0,1,.37.71l-4.07,5.86A.46.46,0,0,1,1543,3799.81Z"/><circle class="f" cx="1543.43" cy="3790.74" r="4.5"/><text class="b" transform="translate(1433.91 3804)">Sint-Denijs</text><text class="b" transform="translate(1428.91 3788)">Saint-Denis</text><path class="h" d="M1552.75,3708.68l4.07,5.85a.45.45,0,0,1-.37.71h-8.14a.45.45,0,0,1-.37-.71l4.07-5.85A.45.45,0,0,1,1552.75,3708.68Z"/><circle class="f" cx="1552.36" cy="3717.74" r="4.5"/><path class="h" d="M1543,3726.81l-4.08-5.86a.46.46,0,0,1,.37-.71h8.15a.45.45,0,0,1,.37.71l-4.07,5.86A.46.46,0,0,1,1543,3726.81Z"/><circle class="f" cx="1543.36" cy="3717.74" r="4.5"/><text class="b" transform="translate(1405.91 3731)"><tspan class="j">V</tspan><tspan x="10.09" y="0">orst Centrum</tspan></text><text class="b" transform="translate(1412.91 3715)">Forest Centre</text><path class="h" d="M1552.75,3573.68l4.07,5.85a.45.45,0,0,1-.37.71h-8.14a.45.45,0,0,1-.37-.71l4.07-5.85A.45.45,0,0,1,1552.75,3573.68Z"/><circle class="f" cx="1552.36" cy="3582.74" r="4.5"/><path class="h" d="M1543,3591.81l-4.08-5.86a.46.46,0,0,1,.37-.71h8.15a.45.45,0,0,1,.37.71l-4.07,5.86A.46.46,0,0,1,1543,3591.81Z"/><circle class="f" cx="1543.36" cy="3582.74" r="4.5"/><text class="b" transform="translate(1316.91 3596)"><tspan class="j">V</tspan><tspan x="10.09" y="0">orst Centrum (Bervoest)</tspan></text><text class="b" transform="translate(1324.91 3580)">Forest Centre (Bervoest)</text><path class="h" d="M1607.23,3502.14l-1,7.06a.45.45,0,0,1-.76.26l-6-5.55a.45.45,0,0,1,.21-.77l7-1.51A.45.45,0,0,1,1607.23,3502.14Z"/><circle class="f" cx="1600.76" cy="3508.5" r="4.5"/><path class="h" d="M1587.71,3508.72l1-7.06a.45.45,0,0,1,.75-.26l6,5.55a.45.45,0,0,1-.22.77l-7,1.51A.46.46,0,0,1,1587.71,3508.72Z"/><circle class="f" cx="1594.18" cy="3502.36" r="4.5"/><text class="b" transform="translate(1540.91 3492)">Gerij</text><text class="b" transform="translate(1519.91 3476)">Charroi</text><path class="h" d="M1723.85,3400.19l4.07,5.86a.45.45,0,0,1-.37.71h-8.15a.46.46,0,0,1-.37-.71l4.08-5.86A.46.46,0,0,1,1723.85,3400.19Z"/><circle class="f" cx="1723.45" cy="3409.26" r="4.5"/><path class="h" d="M1714.06,3418.32l-4.07-5.85a.45.45,0,0,1,.37-.71h8.14a.45.45,0,0,1,.37.71l-4.07,5.85A.45.45,0,0,1,1714.06,3418.32Z"/><circle class="f" cx="1714.45" cy="3409.26" r="4.5"/><text class="b" transform="translate(1648.91 3414.34)"><tspan class="l">W</tspan><tspan x="15.9" y="0">iels</tspan></text><path class="h" d="M1723.85,3325.68l4.07,5.85a.45.45,0,0,1-.37.71h-8.15a.46.46,0,0,1-.37-.71l4.08-5.85A.45.45,0,0,1,1723.85,3325.68Z"/><circle class="f" cx="1723.45" cy="3334.74" r="4.5"/><path class="h" d="M1714.06,3343.81,1710,3338a.45.45,0,0,1,.37-.71h8.14a.45.45,0,0,1,.37.71l-4.07,5.86A.46.46,0,0,1,1714.06,3343.81Z"/><circle class="f" cx="1714.45" cy="3334.74" r="4.5"/><text class="b" transform="translate(1643.91 3339.83)">Orban</text><path class="h" d="M1723.85,3253.68l4.07,5.85a.45.45,0,0,1-.37.71h-8.15a.46.46,0,0,1-.37-.71l4.08-5.85A.45.45,0,0,1,1723.85,3253.68Z"/><circle class="f" cx="1723.45" cy="3262.74" r="4.5"/><path class="h" d="M1714.06,3271.81,1710,3266a.45.45,0,0,1,.37-.71h8.14a.45.45,0,0,1,.37.71l-4.07,5.86A.46.46,0,0,1,1714.06,3271.81Z"/><circle class="f" cx="1714.45" cy="3262.74" r="4.5"/><text class="b" transform="translate(1619.91 3280)">Drukkerij</text><text class="b" transform="translate(1606.91 3260)">Imprimerie</text><path class="h" d="M1723.85,3172.68l4.07,5.85a.45.45,0,0,1-.37.71h-8.14a.46.46,0,0,1-.38-.71l4.08-5.85A.45.45,0,0,1,1723.85,3172.68Z"/><circle class="f" cx="1723.45" cy="3181.74" r="4.5"/><path class="h" d="M1714.06,3190.81,1710,3185a.45.45,0,0,1,.37-.71h8.14a.45.45,0,0,1,.37.71l-4.07,5.86A.46.46,0,0,1,1714.06,3190.81Z"/><circle class="f" cx="1714.45" cy="3181.74" r="4.5"/><text class="b" transform="translate(1591.91 3197.33)">Koningslaan</text><text class="b" transform="translate(1575.91 3180)"><tspan class="n">A</tspan><tspan x="11.65" y="0">venue du Roi</tspan></text><path class="h" d="M1723.85,3108.19l4.07,5.86a.45.45,0,0,1-.37.71h-8.14a.46.46,0,0,1-.38-.71l4.08-5.86A.46.46,0,0,1,1723.85,3108.19Z"/><circle class="f" cx="1723.45" cy="3117.26" r="4.5"/><path class="h" d="M1714.06,3126.32l-4.07-5.85a.45.45,0,0,1,.37-.71h8.14a.45.45,0,0,1,.37.71l-4.07,5.85A.45.45,0,0,1,1714.06,3126.32Z"/><circle class="f" cx="1714.45" cy="3117.26" r="4.5"/><text class="b" transform="translate(1630.91 3130.67)">Zweden</text><text class="b" transform="translate(1641.91 3114.51)">Suède</text><circle class="e" cx="1719.11" cy="2992.5" r="4.5"/><circle class="f" cx="1719.11" cy="2992.5" r="4.5"/><rect class="u" x="1711" y="2952.83" width="18" height="9" rx="0.84" ry="0.84"/><text class="d" transform="translate(1703.5 2967.83)">50</text><text class="v" transform="translate(1206 1971)">Elisabeth</text><text class="b" transform="translate(1395 1971)">Ribaucourt</text><text class="b" transform="translate(1620 1971)">IJzer</text><text class="b" transform="translate(1620 1953)">Yser</text><text class="b" transform="translate(1853.33 1971)">Rogier</text><text class="b" transform="translate(2115 1971)">Kruidtuin</text><text class="b" transform="translate(2115 1953)">Botanique</text><text class="b" transform="translate(2394 2142)">Madou</text><text class="b" transform="translate(2394 2304)">Arts-Loi</text><text class="b" transform="translate(2394 2322)">Kunst-<tspan class="k" x="53.82" y="0">W</tspan><tspan x="69.57" y="0">et</tspan></text><text class="b" transform="translate(2394 2430)"><tspan class="g">T</tspan><tspan x="9.45" y="0">rône</tspan></text><text class="b" transform="translate(2394 2448)"><tspan class="g">T</tspan><tspan x="9.45" y="0">rone</tspan></text><text class="b" transform="translate(2392.48 2583) scale(1.01 1)">Naamsepoort</text><text class="b" transform="translate(2392 2601)">Porte de Namur</text><text class="b" transform="translate(2304 2745)">Louiza</text><text class="b" transform="translate(2136 2893.33)">Munthof</text><text class="b" transform="translate(2136 2912)">Hôtel de Monnaies</text><text class="b" transform="translate(1935 2988)">Porte de Hal</text><text class="b" transform="translate(1935 3006)">Hallepoort</text><text class="b" transform="translate(828 3483)">Het Rad</text><text class="b" transform="translate(828 3501)">La Roue</text><text class="b" transform="translate(1782 2988)">Zuidstation</text><text class="b" transform="translate(1782 3006)">Gare du Midi</text><text class="b" transform="translate(1296 2880)">Clemenceau</text><text class="b" transform="translate(1197 2754)">Delacroix</text><text class="b" transform="translate(1035 2421)">Beekkant</text><text class="b" transform="translate(1072 2205)">Ossegem</text><text class="b" transform="translate(1072 2223)">Osseghem</text><text class="b" transform="translate(1089 2052)">Simonis</text><text class="b" transform="translate(1098 1791)">Belgica</text><text class="b" transform="translate(1062 1683)">Pannenhuis</text><text class="b" transform="translate(1080 1476)">Bockstael</text><text class="b" transform="translate(945 1264)">Stuyvenbergh</text><text class="b" transform="translate(801 1152)">Houba-Brugmann</text><text class="b" transform="translate(969 873)">Heysel</text><text class="b" transform="translate(969 891)">Heizel</text><text class="b" transform="translate(540 783)">Roi Baudouin</text><text class="b" transform="translate(540 801)">Koning Boudewijn</text><text class="b" transform="translate(342 3690)">Erasme</text><text class="b" transform="translate(342 3708)">Erasmus</text><text class="b" transform="translate(594 3681)">Eddy Merckx</text><text class="b" transform="translate(846 3618)">Ceria</text><text class="b" transform="translate(846 3636)">Coovi</text><text class="b" transform="translate(855 3357)">Bizet</text><text class="b" transform="translate(819 3177)"><tspan class="g">V</tspan><tspan x="10.41" y="0">eeweide</tspan></text><text class="b" transform="translate(819 3195)"><tspan class="g">V</tspan><tspan x="10.41" y="0">eeweyde</tspan></text><text class="b" transform="translate(873 2943)">Saint-Guidon</text><text class="b" transform="translate(873 2961)">Sint-Guido</text><text class="b" transform="translate(1026 2835)">Aumale</text><text class="b" transform="translate(1035 2673)">Jacques Brel</text><text class="b" transform="translate(965.33 2547)"><tspan class="k">W</tspan><tspan x="15.75" y="0">eststation</tspan></text><text class="b" transform="translate(936 2565)">Gare de l’Ouest</text><text class="b" transform="translate(1260 2214)">Zwarte <tspan class="k" x="59.52" y="0">V</tspan><tspan x="70.56" y="0">ijvers</tspan></text><text class="b" transform="translate(1260 2232)">Etangs Noirs</text><text class="b" transform="translate(1413 2214)">Comte de Flandre</text><text class="b" transform="translate(1413 2232)">Graaf van Vlaanderen</text><text class="b" transform="translate(1611 2214)">Sint-Katelijne</text><text class="b" transform="translate(1611 2232)">Sainte-Catherine</text><text class="b" transform="translate(1848 2232)">De Brouckère</text><text class="b" transform="translate(1998 2214)">Gare Centrale</text><text class="b" transform="translate(1998 2232)">Centraal Station</text><text class="b" transform="translate(2160 2214)">Park</text><text class="b" transform="translate(2160 2232)">Parc</text><text class="b" transform="translate(2610 2214)">Maalbeek</text><text class="b" transform="translate(2610 2232)">Maelbeek</text><text class="b" transform="translate(2754 2232)">Schuman</text><text class="b" transform="translate(3046 2230)">Merode</text><text class="b" transform="translate(3141 2403)">Thieffry</text><text class="b" transform="translate(3357 2565)"><tspan xml:space="preserve">  Pétillon</tspan></text><text class="b" transform="translate(3357 2907)"><tspan xml:space="preserve">  Hankar</tspan></text><text class="b" transform="translate(3357 3015)"><tspan xml:space="preserve">  Delta</tspan></text><text class="b" transform="translate(3483 3134.33)"><tspan xml:space="preserve">  Beaulieu</tspan></text><text class="b" transform="translate(3870 3132)"><tspan xml:space="preserve">  Demey</tspan></text><text class="b" transform="translate(4095 3141)"><tspan xml:space="preserve">  Herrmann-Debroux</tspan></text><text class="b" transform="translate(3258 2277)">Montgomery</text><text class="b" transform="translate(3402 2169)">Joséphine-Charlotte</text><text class="b" transform="translate(3474 2097)">Gribaumont</text><text class="b" transform="translate(3438 2007)"><tspan class="j">T</tspan><tspan x="9.13" y="0">omberg</tspan></text><text class="b" transform="translate(3600 1971)">Roodebeek</text><text class="b" transform="translate(3753 1971)"><tspan class="g">V</tspan><tspan x="10.41" y="0">andervelde</tspan></text><text class="b" transform="translate(3915 1899)">Alma</text><text class="b" transform="translate(4131 1971)">Crainhem</text><text class="b" transform="translate(4131 1989)">Kraainem</text><text class="b" transform="translate(4131 2169)">Stokkel</text><text class="b" transform="translate(4131 2187)">Stockel</text><text class="b" transform="translate(2304 2727)">Louise</text><rect class="w" x="1242.84" y="1926" width="18" height="9" rx="0.84" ry="0.84"/><text class="d" transform="translate(1244 1941)">2</text><path class="x" d="M1242,2016H2289.23c38,0,59.79,22.42,59.77,61.12v.41c-.06,100.13,0,196.53,0,305,0,55.64,0,72.41,0,106v71.38c0,18.58,1.74,36.4-11.16,49.54l-236.78,241.08A68.21,68.21,0,0,1,2052.4,2871H1503.93a68.19,68.19,0,0,1-49.44-21.34L1233,2628c-16-16.89-18-36.65-18-72V2037.73"/><path class="h" d="M1426.34,2011l5.86-4.08a.46.46,0,0,1,.71.38v8.14a.45.45,0,0,1-.71.37l-5.86-4.07A.46.46,0,0,1,1426.34,2011Z"/><path class="h" d="M1444.8,2020.75l-5.85,4.07a.45.45,0,0,1-.71-.37v-8.14a.46.46,0,0,1,.71-.38l5.85,4.08A.45.45,0,0,1,1444.8,2020.75Z"/><circle class="f" cx="1435.5" cy="2020.5" r="4.5"/><circle class="f" cx="1435.5" cy="2011.5" r="4.5"/><path class="h" d="M1624.33,2011l5.86-4.08a.46.46,0,0,1,.71.38v8.14a.45.45,0,0,1-.71.37l-5.86-4.07A.46.46,0,0,1,1624.33,2011Z"/><path class="h" d="M1642.79,2020.75l-5.85,4.07a.45.45,0,0,1-.71-.37v-8.14a.46.46,0,0,1,.71-.38l5.85,4.08A.45.45,0,0,1,1642.79,2020.75Z"/><circle class="f" cx="1633.5" cy="2020.5" r="4.5"/><circle class="f" cx="1633.5" cy="2011.5" r="4.5"/><path class="h" d="M1876.32,2011l5.86-4.08a.46.46,0,0,1,.71.38v8.14a.45.45,0,0,1-.71.37l-5.86-4.07A.46.46,0,0,1,1876.32,2011Z"/><path class="h" d="M1894.78,2020.75l-5.85,4.07a.45.45,0,0,1-.71-.37v-8.14a.46.46,0,0,1,.71-.38l5.85,4.08A.45.45,0,0,1,1894.78,2020.75Z"/><circle class="f" cx="1885.5" cy="2020.5" r="4.5"/><circle class="f" cx="1885.5" cy="2011.5" r="4.5"/><path class="h" d="M2137.34,2011l5.86-4.08a.46.46,0,0,1,.71.38v8.14a.45.45,0,0,1-.71.37l-5.86-4.07A.46.46,0,0,1,2137.34,2011Z"/><path class="h" d="M2155.8,2020.75l-5.85,4.07a.45.45,0,0,1-.71-.37v-8.14a.46.46,0,0,1,.71-.38l5.85,4.08A.45.45,0,0,1,2155.8,2020.75Z"/><circle class="f" cx="2146.5" cy="2020.5" r="4.5"/><circle class="f" cx="2146.5" cy="2011.5" r="4.5"/><path class="h" d="M2353.79,2128.28l4.08,5.85a.46.46,0,0,1-.38.71h-8.14a.45.45,0,0,1-.37-.71l4.07-5.85A.45.45,0,0,1,2353.79,2128.28Z"/><path class="h" d="M2344.05,2146.41l-4.07-5.86a.45.45,0,0,1,.37-.71h8.14a.46.46,0,0,1,.38.71l-4.08,5.86A.46.46,0,0,1,2344.05,2146.41Z"/><circle class="f" cx="2344.5" cy="2137.5" r="4.5"/><circle class="f" cx="2353.5" cy="2137.5" r="4.5"/><path class="h" d="M2353.79,2290.18l4.08,5.85a.46.46,0,0,1-.38.71h-8.14a.45.45,0,0,1-.37-.71l4.07-5.85A.45.45,0,0,1,2353.79,2290.18Z"/><path class="h" d="M2344.05,2308.31l-4.07-5.86a.45.45,0,0,1,.37-.71h8.14a.46.46,0,0,1,.38.71l-4.08,5.86A.46.46,0,0,1,2344.05,2308.31Z"/><circle class="f" cx="2344.5" cy="2299.35" r="4.5"/><circle class="f" cx="2353.5" cy="2299.35" r="4.5"/><path class="h" d="M2353.79,2425.28l4.08,5.85a.46.46,0,0,1-.38.71h-8.14a.45.45,0,0,1-.37-.71l4.07-5.85A.45.45,0,0,1,2353.79,2425.28Z"/><path class="h" d="M2344.05,2443.41l-4.07-5.86a.45.45,0,0,1,.37-.71h8.14a.46.46,0,0,1,.38.71l-4.08,5.86A.46.46,0,0,1,2344.05,2443.41Z"/><circle class="f" cx="2344.5" cy="2434.5" r="4.5"/><circle class="f" cx="2353.5" cy="2434.5" r="4.5"/><path class="h" d="M2353.79,2569.28l4.08,5.85a.46.46,0,0,1-.38.71h-8.14a.45.45,0,0,1-.37-.71l4.07-5.85A.45.45,0,0,1,2353.79,2569.28Z"/><path class="h" d="M2344.05,2587.41l-4.07-5.86a.45.45,0,0,1,.37-.71h8.14a.46.46,0,0,1,.38.71l-4.08,5.86A.46.46,0,0,1,2344.05,2587.41Z"/><circle class="f" cx="2344.5" cy="2578.5" r="4.5"/><circle class="f" cx="2353.5" cy="2578.5" r="4.5"/><path class="h" d="M2269.25,2685.61l-.77,7.09a.45.45,0,0,1-.75.29l-6.14-5.34a.45.45,0,0,1,.18-.78l6.92-1.75A.46.46,0,0,1,2269.25,2685.61Z"/><path class="h" d="M2250,2692.9l.77-7.09a.45.45,0,0,1,.75-.29l6.14,5.34a.45.45,0,0,1-.18.78l-6.92,1.75A.46.46,0,0,1,2250,2692.9Z"/><circle class="f" cx="2256.4" cy="2686.36" r="4.5"/><circle class="f" cx="2262.98" cy="2692.5" r="4.5"/><path class="h" d="M2116.45,2840.5l-.77,7.09a.45.45,0,0,1-.75.29l-6.14-5.34a.45.45,0,0,1,.18-.78l6.92-1.75A.46.46,0,0,1,2116.45,2840.5Z"/><path class="h" d="M2097.2,2847.79l.77-7.09a.45.45,0,0,1,.75-.29l6.14,5.34a.45.45,0,0,1-.18.78l-6.92,1.75A.46.46,0,0,1,2097.2,2847.79Z"/><circle class="f" cx="2103.6" cy="2841.36" r="4.5"/><circle class="f" cx="2110.18" cy="2847.5" r="4.5"/><path class="h" d="M1975.29,2866.11l5.86-4.08a.46.46,0,0,1,.71.38v8.14a.45.45,0,0,1-.71.37l-5.86-4.07A.46.46,0,0,1,1975.29,2866.11Z"/><path class="h" d="M1993.75,2875.85l-5.85,4.07a.45.45,0,0,1-.71-.37v-8.14a.46.46,0,0,1,.71-.38l5.85,4.08A.45.45,0,0,1,1993.75,2875.85Z"/><circle class="f" cx="1984.5" cy="2875.5" r="4.5"/><circle class="f" cx="1984.5" cy="2866.5" r="4.5"/><path class="h" d="M1852.19,2866.11l5.86-4.08a.46.46,0,0,1,.71.38v8.14a.45.45,0,0,1-.71.37l-5.86-4.07A.46.46,0,0,1,1852.19,2866.11Z"/><path class="h" d="M1870.65,2875.85l-5.85,4.07a.45.45,0,0,1-.71-.37v-8.14a.46.46,0,0,1,.71-.38l5.85,4.08A.45.45,0,0,1,1870.65,2875.85Z"/><circle class="f" cx="1861.3" cy="2875.5" r="4.5"/><circle class="f" cx="1861.3" cy="2866.5" r="4.5"/><path class="h" d="M1436.6,2824l6.91,1.75a.45.45,0,0,1,.18.78l-6.14,5.34a.45.45,0,0,1-.75-.29l-.76-7.09A.45.45,0,0,1,1436.6,2824Z"/><path class="h" d="M1441.35,2844l-6.91-1.75a.45.45,0,0,1-.18-.78l6.14-5.34a.45.45,0,0,1,.75.29l.76,7.09A.45.45,0,0,1,1441.35,2844Z"/><circle class="f" cx="1435.5" cy="2836.92" r="4.5"/><circle class="f" cx="1442.19" cy="2830.9" r="4.5"/><path class="h" d="M1304,2691.34l6.92,1.75a.45.45,0,0,1,.18.78l-6.14,5.34a.45.45,0,0,1-.75-.29l-.77-7.09A.45.45,0,0,1,1304,2691.34Z"/><path class="h" d="M1308.25,2711.19l-6.91-1.75a.45.45,0,0,1-.18-.78l6.14-5.34a.45.45,0,0,1,.75.29l.76,7.09A.45.45,0,0,1,1308.25,2711.19Z"/><circle class="f" cx="1303.1" cy="2704.5" r="4.5"/><circle class="f" cx="1309.79" cy="2698.48" r="4.5"/><path class="h" d="M1219.85,2522.58l4.07,5.85a.45.45,0,0,1-.37.71h-8.14a.46.46,0,0,1-.38-.71l4.08-5.85A.45.45,0,0,1,1219.85,2522.58Z"/><path class="h" d="M1210.11,2540.71l-4.08-5.86a.46.46,0,0,1,.38-.71h8.14a.45.45,0,0,1,.37.71l-4.07,5.86A.46.46,0,0,1,1210.11,2540.71Z"/><circle class="f" cx="1219.5" cy="2531.5" r="4.5"/><circle class="f" cx="1210.5" cy="2531.5" r="4.5"/><path class="h" d="M1219.85,2407.48l4.07,5.85a.45.45,0,0,1-.37.71h-8.15a.46.46,0,0,1-.37-.71l4.08-5.85A.45.45,0,0,1,1219.85,2407.48Z"/><path class="h" d="M1210.11,2425.61l-4.08-5.86a.46.46,0,0,1,.37-.71h8.15a.45.45,0,0,1,.37.71l-4.07,5.86A.46.46,0,0,1,1210.11,2425.61Z"/><circle class="f" cx="1219.5" cy="2416.5" r="4.5"/><circle class="f" cx="1210.5" cy="2416.5" r="4.5"/><path class="h" d="M1219.85,2200.35l4.07,5.85a.45.45,0,0,1-.37.71h-8.14a.46.46,0,0,1-.38-.71l4.08-5.85A.45.45,0,0,1,1219.85,2200.35Z"/><path class="h" d="M1210.11,2218.47l-4.08-5.85a.46.46,0,0,1,.38-.71h8.14a.45.45,0,0,1,.37.71l-4.07,5.85A.45.45,0,0,1,1210.11,2218.47Z"/><circle class="f" cx="1219.5" cy="2209.5" r="4.5"/><circle class="f" cx="1210.5" cy="2209.5" r="4.5"/><path class="y" d="M1242,1989H2302.11a73.89,73.89,0,0,1,73.89,73.89v516.5a73.9,73.9,0,0,1-21.64,52.25L2115,2880c-13.86,13.86-38,18-57.61,18H1489.32a73.87,73.87,0,0,1-53.1-22.51l-227.43-235A120.34,120.34,0,0,1,1188,2583V1388.82a73.89,73.89,0,0,0-20.7-51.29L965.7,1128.47a73.89,73.89,0,0,1-20.7-51.29V865.89A73.89,73.89,0,0,0,871.11,792H720"/><rect class="y" x="720" y="750" width="18" height="9" rx="0.84" ry="0.84"/><text class="d" transform="translate(721.16 765)">6</text><rect class="y" x="1287" y="1926" width="18" height="9" rx="0.84" ry="0.84"/><text class="d" transform="translate(1288.16 1941)">6</text><circle class="e" cx="1246.5" cy="1989" r="4.5"/><circle class="f" cx="1246.5" cy="1989" r="4.5"/><path class="h" d="M1444.56,1993.82l-5.85,4.08a.46.46,0,0,1-.71-.38v-8.14a.45.45,0,0,1,.71-.37l5.85,4.07A.45.45,0,0,1,1444.56,1993.82Z"/><circle class="f" cx="1435.5" cy="1993.5" r="4.5"/><path class="h" d="M1426.44,1984.11l5.85-4.08a.46.46,0,0,1,.71.38v8.14a.45.45,0,0,1-.71.37l-5.85-4.07A.45.45,0,0,1,1426.44,1984.11Z"/><circle class="f" cx="1435.5" cy="1984.5" r="4.5"/><path class="h" d="M1642.56,1993.89l-5.85,4.08a.46.46,0,0,1-.71-.38v-8.14a.45.45,0,0,1,.71-.37l5.85,4.07A.45.45,0,0,1,1642.56,1993.89Z"/><circle class="f" cx="1633.5" cy="1993.5" r="4.5"/><path class="h" d="M1624.44,1984.11l5.85-4.08a.46.46,0,0,1,.71.38v8.14a.45.45,0,0,1-.71.37l-5.85-4.07A.45.45,0,0,1,1624.44,1984.11Z"/><circle class="f" cx="1633.5" cy="1984.5" r="4.5"/><path class="h" d="M1894.56,1993.89l-5.85,4.08a.46.46,0,0,1-.71-.38v-8.14a.45.45,0,0,1,.71-.37l5.85,4.07A.45.45,0,0,1,1894.56,1993.89Z"/><circle class="f" cx="1885.5" cy="1993.5" r="4.5"/><path class="h" d="M1876.44,1984.15l5.85-4.07a.45.45,0,0,1,.71.37v8.14a.46.46,0,0,1-.71.38l-5.85-4.08A.45.45,0,0,1,1876.44,1984.15Z"/><circle class="f" cx="1885.5" cy="1984.5" r="4.5"/><path class="h" d="M2155.56,1993.89l-5.85,4.08a.46.46,0,0,1-.71-.38v-8.14a.45.45,0,0,1,.71-.37l5.85,4.07A.45.45,0,0,1,2155.56,1993.89Z"/><circle class="f" cx="2146.5" cy="1993.5" r="4.5"/><path class="h" d="M2137.44,1984.15l5.85-4.07a.45.45,0,0,1,.71.37v8.14a.46.46,0,0,1-.71.38l-5.85-4.08A.45.45,0,0,1,2137.44,1984.15Z"/><circle class="f" cx="2146.5" cy="1984.5" r="4.5"/><path class="h" d="M2380.89,2128.19l4.08,5.86a.46.46,0,0,1-.38.71h-8.14a.45.45,0,0,1-.37-.71l4.07-5.86A.46.46,0,0,1,2380.89,2128.19Z"/><path class="h" d="M2371.15,2146.32l-4.07-5.85a.45.45,0,0,1,.37-.71h8.14a.46.46,0,0,1,.38.71l-4.08,5.85A.45.45,0,0,1,2371.15,2146.32Z"/><circle class="f" cx="2371.5" cy="2137.5" r="4.5"/><circle class="f" cx="2380.5" cy="2137.5" r="4.5"/><path class="h" d="M2380.89,2290.68l4.08,5.85a.46.46,0,0,1-.38.71h-8.14a.45.45,0,0,1-.37-.71l4.07-5.85A.45.45,0,0,1,2380.89,2290.68Z"/><path class="h" d="M2371.15,2308.81l-4.07-5.86a.45.45,0,0,1,.37-.71h8.14a.46.46,0,0,1,.38.71l-4.08,5.86A.46.46,0,0,1,2371.15,2308.81Z"/><circle class="f" cx="2371.5" cy="2299.35" r="4.5"/><circle class="f" cx="2380.5" cy="2299.35" r="4.5"/><path class="h" d="M2380.89,2425.68l4.08,5.85a.46.46,0,0,1-.38.71h-8.14a.45.45,0,0,1-.37-.71l4.07-5.85A.45.45,0,0,1,2380.89,2425.68Z"/><path class="h" d="M2371.15,2443.81l-4.07-5.86a.45.45,0,0,1,.37-.71h8.14a.46.46,0,0,1,.38.71l-4.08,5.86A.46.46,0,0,1,2371.15,2443.81Z"/><circle class="f" cx="2371.5" cy="2434.5" r="4.5"/><circle class="f" cx="2380.5" cy="2434.5" r="4.5"/><path class="h" d="M2380.89,2569.68l4.08,5.85a.46.46,0,0,1-.38.71h-8.14a.45.45,0,0,1-.37-.71l4.07-5.85A.45.45,0,0,1,2380.89,2569.68Z"/><path class="h" d="M2371.15,2587.81l-4.07-5.86a.45.45,0,0,1,.37-.71h8.14a.46.46,0,0,1,.38.71l-4.08,5.86A.46.46,0,0,1,2371.15,2587.81Z"/><circle class="f" cx="2371.5" cy="2578.5" r="4.5"/><circle class="f" cx="2380.5" cy="2578.5" r="4.5"/><path class="h" d="M2290.5,2706l-1.63,6.94a.45.45,0,0,1-.77.2l-5.45-6.05a.45.45,0,0,1,.28-.75l7.08-.89A.45.45,0,0,1,2290.5,2706Z"/><path class="h" d="M2270.51,2710.9l1.63-6.94a.45.45,0,0,1,.77-.2l5.45,6a.45.45,0,0,1-.28.75l-7.07.89A.46.46,0,0,1,2270.51,2710.9Z"/><circle class="f" cx="2277.2" cy="2705.36" r="4.5"/><circle class="f" cx="2283.78" cy="2711.5" r="4.5"/><path class="h" d="M2139,2862.71l-1.63,6.94a.45.45,0,0,1-.77.2l-5.45-6a.45.45,0,0,1,.28-.75l7.07-.89A.45.45,0,0,1,2139,2862.71Z"/><path class="h" d="M2119.11,2867.6l1.63-6.94a.45.45,0,0,1,.77-.2l5.45,6.05a.45.45,0,0,1-.28.75l-7.07.89A.46.46,0,0,1,2119.11,2867.6Z"/><circle class="f" cx="2125.5" cy="2862.36" r="4.5"/><circle class="f" cx="2132.08" cy="2868.5" r="4.5"/><path class="h" d="M1975.29,2893.11l5.86-4.08a.46.46,0,0,1,.71.38v8.14a.45.45,0,0,1-.71.37l-5.86-4.07A.46.46,0,0,1,1975.29,2893.11Z"/><path class="h" d="M1993.75,2902.85l-5.85,4.07a.45.45,0,0,1-.71-.37v-8.14a.46.46,0,0,1,.71-.38l5.85,4.08A.45.45,0,0,1,1993.75,2902.85Z"/><circle class="f" cx="1984.5" cy="2902.5" r="4.5"/><circle class="f" cx="1984.5" cy="2893.5" r="4.5"/><path class="h" d="M1852.1,2893.11,1858,2889a.46.46,0,0,1,.71.38v8.14a.45.45,0,0,1-.71.37l-5.86-4.07A.46.46,0,0,1,1852.1,2893.11Z"/><path class="h" d="M1870.56,2902.85l-5.85,4.07a.45.45,0,0,1-.71-.37v-8.14a.46.46,0,0,1,.71-.38l5.85,4.08A.45.45,0,0,1,1870.56,2902.85Z"/><circle class="f" cx="1861.3" cy="2902.5" r="4.5"/><circle class="f" cx="1861.3" cy="2893.5" r="4.5"/><path class="h" d="M1414.37,2844.31l6.73,2.35a.45.45,0,0,1,.12.79l-6.59,4.79a.45.45,0,0,1-.71-.36l-.15-7.13A.46.46,0,0,1,1414.37,2844.31Z"/><path class="h" d="M1417.44,2864.77l-6.74-2.34a.45.45,0,0,1-.11-.79l6.58-4.79a.46.46,0,0,1,.72.36l.15,7.13A.45.45,0,0,1,1417.44,2864.77Z"/><circle class="f" cx="1412.5" cy="2857.5" r="4.5"/><circle class="f" cx="1419.19" cy="2851.48" r="4.5"/><path class="h" d="M1283.77,2709.36l6.73,2.34a.45.45,0,0,1,.12.79l-6.59,4.79a.45.45,0,0,1-.71-.36l-.15-7.13A.45.45,0,0,1,1283.77,2709.36Z"/><path class="h" d="M1286.74,2729.67l-6.74-2.34a.45.45,0,0,1-.11-.79l6.58-4.79a.46.46,0,0,1,.72.36l.15,7.13A.45.45,0,0,1,1286.74,2729.67Z"/><circle class="f" cx="1281.8" cy="2722.5" r="4.5"/><circle class="f" cx="1288.49" cy="2716.48" r="4.5"/><path class="h" d="M1192.89,2522.58l4.08,5.85a.46.46,0,0,1-.38.71h-8.14a.45.45,0,0,1-.37-.71l4.07-5.85A.45.45,0,0,1,1192.89,2522.58Z"/><path class="h" d="M1183.15,2540.71l-4.07-5.86a.45.45,0,0,1,.37-.71h8.14a.46.46,0,0,1,.38.71l-4.08,5.86A.46.46,0,0,1,1183.15,2540.71Z"/><circle class="f" cx="1192.5" cy="2531.5" r="4.5"/><circle class="f" cx="1183.5" cy="2531.5" r="4.5"/><path class="h" d="M1192.89,2407.68l4.08,5.85a.46.46,0,0,1-.38.71h-8.14a.45.45,0,0,1-.37-.71l4.07-5.85A.45.45,0,0,1,1192.89,2407.68Z"/><path class="h" d="M1183.15,2425.81l-4.07-5.86a.45.45,0,0,1,.37-.71h8.14a.46.46,0,0,1,.38.71l-4.08,5.86A.46.46,0,0,1,1183.15,2425.81Z"/><circle class="f" cx="1192.5" cy="2416.5" r="4.5"/><circle class="f" cx="1183.5" cy="2416.5" r="4.5"/><path class="h" d="M1193.09,2200.43l4.08,5.85a.46.46,0,0,1-.38.71h-8.14a.45.45,0,0,1-.37-.71l4.07-5.85A.45.45,0,0,1,1193.09,2200.43Z"/><path class="h" d="M1183.35,2218.56l-4.07-5.86a.45.45,0,0,1,.37-.71h8.14a.46.46,0,0,1,.38.71l-4.08,5.86A.46.46,0,0,1,1183.35,2218.56Z"/><circle class="f" cx="1192.5" cy="2209.5" r="4.5"/><circle class="f" cx="1183.5" cy="2209.5" r="4.5"/><path class="h" d="M1192.89,2036.68l4.08,5.85a.46.46,0,0,1-.38.71h-8.14a.45.45,0,0,1-.37-.71l4.07-5.85A.45.45,0,0,1,1192.89,2036.68Z"/><path class="h" d="M1183.15,2054.81l-4.07-5.86a.45.45,0,0,1,.37-.71h8.14a.46.46,0,0,1,.38.71l-4.08,5.86A.46.46,0,0,1,1183.15,2054.81Z"/><circle class="f" cx="1192.5" cy="2045.5" r="4.5"/><circle class="f" cx="1183.5" cy="2045.5" r="4.5"/><path class="h" d="M1192.89,1777.18,1197,1783a.46.46,0,0,1-.38.71h-8.14a.45.45,0,0,1-.37-.71l4.07-5.85A.45.45,0,0,1,1192.89,1777.18Z"/><path class="h" d="M1183.15,1795.31l-4.07-5.86a.45.45,0,0,1,.37-.71h8.14a.46.46,0,0,1,.38.71l-4.08,5.86A.46.46,0,0,1,1183.15,1795.31Z"/><circle class="f" cx="1192.5" cy="1786.5" r="4.5"/><circle class="f" cx="1183.5" cy="1786.5" r="4.5"/><path class="h" d="M1193,1669.68l4.08,5.85a.46.46,0,0,1-.38.71h-8.14a.45.45,0,0,1-.37-.71l4.07-5.85A.45.45,0,0,1,1193,1669.68Z"/><path class="h" d="M1183.25,1687.81l-4.07-5.86a.45.45,0,0,1,.37-.71h8.14a.46.46,0,0,1,.38.71l-4.08,5.86A.46.46,0,0,1,1183.25,1687.81Z"/><circle class="f" cx="1192.5" cy="1678.5" r="4.5"/><circle class="f" cx="1183.5" cy="1678.5" r="4.5"/><path class="h" d="M1192.79,1466.28l4.08,5.85a.46.46,0,0,1-.38.71h-8.14a.45.45,0,0,1-.37-.71l4.07-5.85A.45.45,0,0,1,1192.79,1466.28Z"/><path class="h" d="M1183.05,1484.41l-4.07-5.86a.45.45,0,0,1,.37-.71h8.14a.46.46,0,0,1,.38.71l-4.08,5.86A.46.46,0,0,1,1183.05,1484.41Z"/><circle class="f" cx="1192.5" cy="1475.5" r="4.5"/><circle class="f" cx="1183.5" cy="1475.5" r="4.5"/><path class="h" d="M1088.5,1248.2l6.94,1.63a.45.45,0,0,1,.2.77l-6.05,5.45a.45.45,0,0,1-.75-.28l-.89-7.08A.45.45,0,0,1,1088.5,1248.2Z"/><path class="h" d="M1093.39,1268.19l-6.94-1.63a.45.45,0,0,1-.2-.77l6-5.45a.45.45,0,0,1,.75.28l.89,7.07A.45.45,0,0,1,1093.39,1268.19Z"/><circle class="f" cx="1094.5" cy="1255.5" r="4.5"/><circle class="f" cx="1087.13" cy="1260.66" r="4.5"/><path class="h" d="M977.4,1133l6.94,1.63a.45.45,0,0,1,.2.77l-6,5.45a.45.45,0,0,1-.75-.28l-.89-7.08A.45.45,0,0,1,977.4,1133Z"/><path class="h" d="M982.29,1153l-6.94-1.63a.45.45,0,0,1-.2-.77l6.05-5.45a.45.45,0,0,1,.75.28l.89,7.07A.45.45,0,0,1,982.29,1153Z"/><circle class="f" cx="983.37" cy="1140.3" r="4.5"/><circle class="f" cx="976" cy="1145.47" r="4.5"/><path class="h" d="M950,877.48l4.08,5.85a.46.46,0,0,1-.38.71h-8.14a.45.45,0,0,1-.37-.71l4.07-5.85A.45.45,0,0,1,950,877.48Z"/><path class="h" d="M940.25,895.61l-4.07-5.86a.45.45,0,0,1,.37-.71h8.14a.46.46,0,0,1,.38.71L941,895.61A.46.46,0,0,1,940.25,895.61Z"/><circle class="f" cx="949.5" cy="886.5" r="4.5"/><circle class="f" cx="940.5" cy="886.5" r="4.5"/><path class="z" d="M459,3699H865.84c23.93,0,51.84-21.07,52.16-45l-.23-603.69A43.72,43.72,0,0,1,930,3020.54l218.72-226.83a43.71,43.71,0,0,0,12.26-30.37V2320.75a43.75,43.75,0,0,1,43.75-43.75H3095.88a43.75,43.75,0,0,1,30.93,12.81l208.63,208.63a43.76,43.76,0,0,1,12.81,30.32l1,576.24a43.74,43.74,0,0,0,43.74,43.13l378,1.87h306"/><rect class="z" x="468" y="3654" width="18" height="9" rx="0.84" ry="0.84"/><text class="d" transform="translate(469.16 3669)"><tspan xml:space="preserve">5   </tspan></text><rect class="z" x="4050" y="3105" width="18" height="9" rx="0.84" ry="0.84"/><text class="d" transform="translate(4051.16 3120)">5</text><circle class="e" cx="4071.5" cy="3150.5" r="4.5"/><circle class="f" cx="4071.5" cy="3150.5" r="4.5"/><path class="h" d="M3892.29,3145.11l5.86-4.08a.46.46,0,0,1,.71.38v8.14a.45.45,0,0,1-.71.37l-5.86-4.07A.46.46,0,0,1,3892.29,3145.11Z"/><path class="h" d="M3910.75,3154.85l-5.85,4.07a.45.45,0,0,1-.71-.37v-8.14a.46.46,0,0,1,.71-.38l5.85,4.08A.45.45,0,0,1,3910.75,3154.85Z"/><circle class="f" cx="3901.5" cy="3154.5" r="4.5"/><circle class="f" cx="3901.5" cy="3145.5" r="4.5"/><path class="h" d="M3514.29,3144.11l5.86-4.08a.46.46,0,0,1,.71.38v8.14a.45.45,0,0,1-.71.37l-5.86-4.07A.46.46,0,0,1,3514.29,3144.11Z"/><path class="h" d="M3532.75,3153.85l-5.85,4.07a.45.45,0,0,1-.71-.37v-8.14a.46.46,0,0,1,.71-.38l5.85,4.08A.45.45,0,0,1,3532.75,3153.85Z"/><circle class="f" cx="3523.5" cy="3153.5" r="4.5"/><circle class="f" cx="3523.5" cy="3144.5" r="4.5"/><path class="h" d="M3353.89,3001.48l4.08,5.85a.46.46,0,0,1-.38.71h-8.14a.45.45,0,0,1-.37-.71l4.07-5.85A.45.45,0,0,1,3353.89,3001.48Z"/><path class="h" d="M3344.15,3019.61l-4.07-5.86a.45.45,0,0,1,.37-.71h8.14a.46.46,0,0,1,.38.71l-4.08,5.86A.46.46,0,0,1,3344.15,3019.61Z"/><circle class="f" cx="3353.5" cy="3010.5" r="4.5"/><circle class="f" cx="3344.5" cy="3010.5" r="4.5"/><path class="h" d="M3353.89,2893.48l4.08,5.85a.46.46,0,0,1-.38.71h-8.14a.45.45,0,0,1-.37-.71l4.07-5.85A.45.45,0,0,1,3353.89,2893.48Z"/><path class="h" d="M3344.15,2911.61l-4.07-5.86a.45.45,0,0,1,.37-.71h8.14a.46.46,0,0,1,.38.71l-4.08,5.86A.46.46,0,0,1,3344.15,2911.61Z"/><circle class="f" cx="3353.5" cy="2902.5" r="4.5"/><circle class="f" cx="3344.5" cy="2902.5" r="4.5"/><path class="h" d="M3353.18,2551.68l4.07,5.85a.45.45,0,0,1-.37.71h-8.14a.45.45,0,0,1-.37-.71l4.07-5.85A.45.45,0,0,1,3353.18,2551.68Z"/><path class="h" d="M3343.44,2569.81l-4.07-5.86a.45.45,0,0,1,.37-.71h8.14a.45.45,0,0,1,.37.71l-4.07,5.86A.46.46,0,0,1,3343.44,2569.81Z"/><circle class="f" cx="3352.7" cy="2560.5" r="4.5"/><circle class="f" cx="3343.7" cy="2560.5" r="4.5"/><path class="h" d="M3218.71,2373.92l6.92,1.74a.45.45,0,0,1,.18.78l-6.14,5.34a.45.45,0,0,1-.75-.29l-.77-7.09A.45.45,0,0,1,3218.71,2373.92Z"/><path class="h" d="M3223.25,2394l-6.91-1.75a.45.45,0,0,1-.18-.78l6.14-5.34a.45.45,0,0,1,.75.29l.76,7.09A.45.45,0,0,1,3223.25,2394Z"/><circle class="f" cx="3217.5" cy="2387" r="4.5"/><circle class="f" cx="3224.39" cy="2381.21" r="4.5"/><path class="h" d="M3073.19,2272.11l5.86-4.08a.46.46,0,0,1,.71.38v8.14a.45.45,0,0,1-.71.37l-5.86-4.07A.46.46,0,0,1,3073.19,2272.11Z"/><path class="h" d="M3091.65,2281.85l-5.85,4.07a.45.45,0,0,1-.71-.37v-8.14a.46.46,0,0,1,.71-.38l5.85,4.08A.45.45,0,0,1,3091.65,2281.85Z"/><circle class="f" cx="3082.5" cy="2281.5" r="4.5"/><circle class="f" cx="3082.5" cy="2272.5" r="4.5"/><path class="h" d="M2785.19,2272.11l5.86-4.08a.46.46,0,0,1,.71.38v8.14a.45.45,0,0,1-.71.37l-5.86-4.07A.46.46,0,0,1,2785.19,2272.11Z"/><path class="h" d="M2803.65,2281.85l-5.85,4.07a.45.45,0,0,1-.71-.37v-8.14a.46.46,0,0,1,.71-.38l5.85,4.08A.45.45,0,0,1,2803.65,2281.85Z"/><circle class="f" cx="2794.5" cy="2281.5" r="4.5"/><circle class="f" cx="2794.5" cy="2272.5" r="4.5"/><path class="h" d="M2623.19,2272.11l5.86-4.08a.46.46,0,0,1,.71.38v8.14a.45.45,0,0,1-.71.37l-5.86-4.07A.46.46,0,0,1,2623.19,2272.11Z"/><path class="h" d="M2641.65,2281.85l-5.85,4.07a.45.45,0,0,1-.71-.37v-8.14a.46.46,0,0,1,.71-.38l5.85,4.08A.45.45,0,0,1,2641.65,2281.85Z"/><circle class="f" cx="2632.5" cy="2281.5" r="4.5"/><circle class="f" cx="2632.5" cy="2272.5" r="4.5"/><path class="h" d="M2367.19,2272.11l5.86-4.08a.46.46,0,0,1,.71.38v8.14a.45.45,0,0,1-.71.37l-5.86-4.07A.46.46,0,0,1,2367.19,2272.11Z"/><path class="h" d="M2385.65,2281.85l-5.85,4.07a.45.45,0,0,1-.71-.37v-8.14a.46.46,0,0,1,.71-.38l5.85,4.08A.45.45,0,0,1,2385.65,2281.85Z"/><circle class="f" cx="2376.5" cy="2281.5" r="4.5"/><circle class="f" cx="2376.5" cy="2272.5" r="4.5"/><path class="h" d="M2173.35,2272.11l5.85-4.08a.46.46,0,0,1,.71.38v8.14a.45.45,0,0,1-.71.37l-5.85-4.07A.45.45,0,0,1,2173.35,2272.11Z"/><path class="h" d="M2191.81,2281.85l-5.86,4.07a.45.45,0,0,1-.71-.37v-8.14a.46.46,0,0,1,.71-.38l5.86,4.08A.46.46,0,0,1,2191.81,2281.85Z"/><circle class="f" cx="2182.5" cy="2281.5" r="4.5"/><circle class="f" cx="2182.5" cy="2272.5" r="4.5"/><path class="h" d="M2056.19,2272.11l5.86-4.08a.46.46,0,0,1,.71.38v8.14a.45.45,0,0,1-.71.37l-5.86-4.07A.46.46,0,0,1,2056.19,2272.11Z"/><path class="h" d="M2074.65,2281.85l-5.85,4.07a.45.45,0,0,1-.71-.37v-8.14a.46.46,0,0,1,.71-.38l5.85,4.08A.45.45,0,0,1,2074.65,2281.85Z"/><circle class="f" cx="2065.5" cy="2281.5" r="4.5"/><circle class="f" cx="2065.5" cy="2272.5" r="4.5"/><path class="h" d="M1876.19,2272.11l5.86-4.08a.46.46,0,0,1,.71.38v8.14a.45.45,0,0,1-.71.37l-5.86-4.07A.46.46,0,0,1,1876.19,2272.11Z"/><path class="h" d="M1894.65,2281.85l-5.85,4.07a.45.45,0,0,1-.71-.37v-8.14a.46.46,0,0,1,.71-.38l5.85,4.08A.45.45,0,0,1,1894.65,2281.85Z"/><circle class="f" cx="1885.5" cy="2281.5" r="4.5"/><circle class="f" cx="1885.5" cy="2272.5" r="4.5"/><path class="h" d="M1678.19,2272.11l5.86-4.08a.46.46,0,0,1,.71.38v8.14a.45.45,0,0,1-.71.37l-5.86-4.07A.46.46,0,0,1,1678.19,2272.11Z"/><path class="h" d="M1696.65,2281.85l-5.85,4.07a.45.45,0,0,1-.71-.37v-8.14a.46.46,0,0,1,.71-.38l5.85,4.08A.45.45,0,0,1,1696.65,2281.85Z"/><circle class="f" cx="1687.5" cy="2281.5" r="4.5"/><circle class="f" cx="1687.5" cy="2272.5" r="4.5"/><path class="h" d="M1462.19,2272.11l5.86-4.08a.46.46,0,0,1,.71.38v8.14a.45.45,0,0,1-.71.37l-5.86-4.07A.46.46,0,0,1,1462.19,2272.11Z"/><path class="h" d="M1480.65,2281.85l-5.85,4.07a.45.45,0,0,1-.71-.37v-8.14a.46.46,0,0,1,.71-.38l5.85,4.08A.45.45,0,0,1,1480.65,2281.85Z"/><circle class="f" cx="1471.5" cy="2281.5" r="4.5"/><circle class="f" cx="1471.5" cy="2272.5" r="4.5"/><path class="h" d="M1318.19,2272.11l5.86-4.08a.46.46,0,0,1,.71.38v8.14a.45.45,0,0,1-.71.37l-5.86-4.07A.46.46,0,0,1,1318.19,2272.11Z"/><path class="h" d="M1336.65,2281.85l-5.85,4.07a.45.45,0,0,1-.71-.37v-8.14a.46.46,0,0,1,.71-.38l5.85,4.08A.45.45,0,0,1,1336.65,2281.85Z"/><circle class="f" cx="1327.5" cy="2281.5" r="4.5"/><circle class="f" cx="1327.5" cy="2272.5" r="4.5"/><path class="h" d="M1165.89,2407.68l4.08,5.85a.46.46,0,0,1-.38.71h-8.14a.45.45,0,0,1-.37-.71l4.07-5.85A.45.45,0,0,1,1165.89,2407.68Z"/><path class="h" d="M1156.15,2425.81l-4.07-5.86a.45.45,0,0,1,.37-.71h8.14a.46.46,0,0,1,.38.71l-4.08,5.86A.46.46,0,0,1,1156.15,2425.81Z"/><circle class="f" cx="1165.5" cy="2416.5" r="4.5"/><circle class="f" cx="1156.5" cy="2416.5" r="4.5"/><path class="h" d="M1165.89,2522.38l4.08,5.85a.46.46,0,0,1-.38.71h-8.14a.45.45,0,0,1-.37-.71l4.07-5.85A.45.45,0,0,1,1165.89,2522.38Z"/><path class="h" d="M1156.15,2540.51l-4.07-5.86a.45.45,0,0,1,.37-.71h8.14a.46.46,0,0,1,.38.71l-4.08,5.86A.46.46,0,0,1,1156.15,2540.51Z"/><circle class="f" cx="1165.5" cy="2531.5" r="4.5"/><circle class="f" cx="1156.5" cy="2531.5" r="4.5"/><path class="h" d="M1165.89,2656.35l4.08,5.85a.46.46,0,0,1-.38.71h-8.14a.45.45,0,0,1-.37-.71l4.07-5.85A.45.45,0,0,1,1165.89,2656.35Z"/><path class="h" d="M1156.15,2674.47l-4.07-5.85a.45.45,0,0,1,.37-.71h8.14a.46.46,0,0,1,.38.71l-4.08,5.85A.45.45,0,0,1,1156.15,2674.47Z"/><circle class="f" cx="1165.5" cy="2665.5" r="4.5"/><circle class="f" cx="1156.5" cy="2665.5" r="4.5"/><path class="h" d="M1115.35,2834.25l-.39,7.12a.45.45,0,0,1-.73.33l-6.42-5a.45.45,0,0,1,.15-.79l6.81-2.1A.44.44,0,0,1,1115.35,2834.25Z"/><path class="h" d="M1096.52,2842.54l.39-7.12a.45.45,0,0,1,.73-.33l6.42,5a.46.46,0,0,1-.15.79l-6.81,2.11A.45.45,0,0,1,1096.52,2842.54Z"/><circle class="f" cx="1109.19" cy="2841.2" r="4.5"/><circle class="f" cx="1102.5" cy="2835.18" r="4.5"/><path class="h" d="M994.64,2959.74l-.4,7.12a.45.45,0,0,1-.73.33l-6.41-5a.44.44,0,0,1,.14-.78l6.81-2.11A.46.46,0,0,1,994.64,2959.74Z"/><path class="h" d="M975.8,2968l.4-7.12a.45.45,0,0,1,.72-.33l6.42,5a.44.44,0,0,1-.14.78l-6.82,2.11A.45.45,0,0,1,975.8,2968Z"/><circle class="f" cx="988.39" cy="2966.43" r="4.5"/><circle class="f" cx="981.7" cy="2960.4" r="4.5"/><path class="h" d="M922.89,3172.68l4.08,5.85a.46.46,0,0,1-.38.71h-8.14a.45.45,0,0,1-.37-.71l4.07-5.85A.45.45,0,0,1,922.89,3172.68Z"/><path class="h" d="M913.15,3190.81l-4.07-5.86a.45.45,0,0,1,.37-.71h8.14a.46.46,0,0,1,.38.71l-4.08,5.86A.46.46,0,0,1,913.15,3190.81Z"/><circle class="f" cx="922.5" cy="3181.5" r="4.5"/><circle class="f" cx="913.5" cy="3181.5" r="4.5"/><path class="h" d="M922.89,3343.68l4.08,5.85a.46.46,0,0,1-.38.71h-8.14a.45.45,0,0,1-.37-.71l4.07-5.85A.45.45,0,0,1,922.89,3343.68Z"/><path class="h" d="M913.15,3361.81l-4.07-5.86a.45.45,0,0,1,.37-.71h8.14a.46.46,0,0,1,.38.71l-4.08,5.86A.46.46,0,0,1,913.15,3361.81Z"/><circle class="f" cx="922.5" cy="3352.5" r="4.5"/><circle class="f" cx="913.5" cy="3352.5" r="4.5"/><path class="h" d="M922.89,3478.68l4.08,5.85a.46.46,0,0,1-.38.71h-8.14a.45.45,0,0,1-.37-.71l4.07-5.85A.45.45,0,0,1,922.89,3478.68Z"/><path class="h" d="M913.15,3496.81l-4.07-5.86a.45.45,0,0,1,.37-.71h8.14a.46.46,0,0,1,.38.71l-4.08,5.86A.46.46,0,0,1,913.15,3496.81Z"/><circle class="f" cx="922.5" cy="3487.5" r="4.5"/><circle class="f" cx="913.5" cy="3487.5" r="4.5"/><path class="h" d="M922.89,3613.68l4.08,5.85a.46.46,0,0,1-.38.71h-8.14a.45.45,0,0,1-.37-.71l4.07-5.85A.45.45,0,0,1,922.89,3613.68Z"/><path class="h" d="M913.15,3631.81l-4.07-5.86a.45.45,0,0,1,.37-.71h8.14a.46.46,0,0,1,.38.71l-4.08,5.86A.46.46,0,0,1,913.15,3631.81Z"/><circle class="f" cx="922.5" cy="3622.5" r="4.5"/><circle class="f" cx="913.5" cy="3622.5" r="4.5"/><path class="h" d="M634.29,3694.11l5.86-4.08a.46.46,0,0,1,.71.38v8.14a.45.45,0,0,1-.71.37l-5.86-4.07A.46.46,0,0,1,634.29,3694.11Z"/><path class="h" d="M652.75,3703.85l-5.85,4.07a.45.45,0,0,1-.71-.37v-8.14a.46.46,0,0,1,.71-.38l5.85,4.08A.45.45,0,0,1,652.75,3703.85Z"/><circle class="f" cx="643.5" cy="3703.5" r="4.5"/><circle class="f" cx="643.5" cy="3694.5" r="4.5"/><rect class="aa" x="4140" y="2127" width="18" height="9" rx="0.84" ry="0.84"/><text class="d" transform="translate(4141.16 2142)">1</text><rect class="aa" x="1089" y="2502" width="18" height="9" rx="0.84" ry="0.84"/><text class="d" transform="translate(1090.16 2517)">1</text><path class="aa" d="M1134,2538V2317.06a67.07,67.07,0,0,1,67.06-67.06H3249.52a67.11,67.11,0,0,0,45.82-18.09l240.32-224.82a67.11,67.11,0,0,1,45.82-18.09h271.3a67.05,67.05,0,0,0,45.49-17.79l78.46-72.42a67.05,67.05,0,0,1,45.49-17.79h0a67.07,67.07,0,0,1,47.42,19.64l5.72,5.72a67.07,67.07,0,0,1,19.64,47.42V2178"/><circle class="e" cx="4095" cy="2170.5" r="4.5"/><circle class="f" cx="4095" cy="2170.5" r="4.5"/><path class="h" d="M4099.85,1966.68l4.07,5.85a.45.45,0,0,1-.37.71h-8.14a.46.46,0,0,1-.38-.71l4.08-5.85A.45.45,0,0,1,4099.85,1966.68Z"/><path class="h" d="M4090.11,1984.81,4086,1979a.46.46,0,0,1,.38-.71h8.14a.45.45,0,0,1,.37.71l-4.07,5.86A.46.46,0,0,1,4090.11,1984.81Z"/><circle class="f" cx="4099.5" cy="1975.5" r="4.5"/><circle class="f" cx="4090.5" cy="1975.5" r="4.5"/><path class="h" d="M3954.5,1914.17l.77-7.09a.45.45,0,0,1,.75-.29l6.14,5.34a.45.45,0,0,1-.18.78l-6.92,1.74A.45.45,0,0,1,3954.5,1914.17Z"/><path class="h" d="M3973.75,1906.88,3973,1914a.45.45,0,0,1-.75.29l-6.14-5.34a.45.45,0,0,1,.18-.78l6.92-1.75A.45.45,0,0,1,3973.75,1906.88Z"/><circle class="f" cx="3967.36" cy="1913.5" r="4.5"/><circle class="f" cx="3961" cy="1907.14" r="4.5"/><path class="h" d="M3793.29,1984.11l5.85-4.08a.46.46,0,0,1,.71.38v8.14a.45.45,0,0,1-.71.37l-5.85-4.07A.45.45,0,0,1,3793.29,1984.11Z"/><path class="h" d="M3811.75,1993.85l-5.86,4.07a.45.45,0,0,1-.71-.37v-8.14a.46.46,0,0,1,.71-.38l5.86,4.08A.46.46,0,0,1,3811.75,1993.85Z"/><circle class="f" cx="3802.5" cy="1993.5" r="4.5"/><circle class="f" cx="3802.5" cy="1984.5" r="4.5"/><path class="h" d="M3631.19,1984.11l5.86-4.08a.46.46,0,0,1,.71.38v8.14a.45.45,0,0,1-.71.37l-5.86-4.07A.46.46,0,0,1,3631.19,1984.11Z"/><path class="h" d="M3649.65,1993.85l-5.85,4.07a.45.45,0,0,1-.71-.37v-8.14a.46.46,0,0,1,.71-.38l5.85,4.08A.45.45,0,0,1,3649.65,1993.85Z"/><circle class="f" cx="3640.5" cy="1993.5" r="4.5"/><circle class="f" cx="3640.5" cy="1984.5" r="4.5"/><path class="h" d="M3517.42,2016.87l2-6.85a.44.44,0,0,1,.78-.15l5.12,6.32a.45.45,0,0,1-.31.74l-7.12.52A.45.45,0,0,1,3517.42,2016.87Z"/><path class="h" d="M3537.89,2012.83l-2,6.84a.45.45,0,0,1-.79.16l-5.12-6.33a.45.45,0,0,1,.32-.73l7.11-.52A.45.45,0,0,1,3537.89,2012.83Z"/><circle class="f" cx="3531.08" cy="2017.8" r="4.5"/><circle class="f" cx="3524.5" cy="2011.66" r="4.5"/><path class="h" d="M3445,2084.51l2-6.85a.45.45,0,0,1,.78-.16l5.12,6.33a.45.45,0,0,1-.31.73l-7.12.52A.44.44,0,0,1,3445,2084.51Z"/><path class="h" d="M3465.49,2080.46l-2,6.85a.46.46,0,0,1-.79.16l-5.12-6.33a.46.46,0,0,1,.32-.74l7.11-.52A.45.45,0,0,1,3465.49,2080.46Z"/><circle class="f" cx="3458.14" cy="2085.97" r="4.5"/><circle class="f" cx="3452" cy="2079.39" r="4.5"/><path class="h" d="M3383,2142.37l2-6.85a.44.44,0,0,1,.78-.15l5.12,6.32a.45.45,0,0,1-.31.74l-7.12.52A.45.45,0,0,1,3383,2142.37Z"/><path class="h" d="M3403.49,2138.33l-2,6.84a.45.45,0,0,1-.79.16l-5.12-6.33a.45.45,0,0,1,.32-.73l7.11-.52A.45.45,0,0,1,3403.49,2138.33Z"/><circle class="f" cx="3396.46" cy="2143.59" r="4.5"/><circle class="f" cx="3390.1" cy="2137.22" r="4.5"/><path class="h" d="M3244.44,2244.86l5.86-4.08a.46.46,0,0,1,.71.38v8.14a.45.45,0,0,1-.71.37l-5.86-4.07A.46.46,0,0,1,3244.44,2244.86Z"/><path class="h" d="M3262.9,2254.6l-5.85,4.07a.45.45,0,0,1-.71-.37v-8.14a.46.46,0,0,1,.71-.38l5.85,4.08A.45.45,0,0,1,3262.9,2254.6Z"/><circle class="f" cx="3253.5" cy="2254.5" r="4.5"/><circle class="f" cx="3253.5" cy="2245.5" r="4.5"/><path class="h" d="M3073.29,2245.11l5.86-4.08a.46.46,0,0,1,.71.38v8.14a.45.45,0,0,1-.71.37l-5.86-4.07A.46.46,0,0,1,3073.29,2245.11Z"/><path class="h" d="M3091.75,2254.85l-5.85,4.07a.45.45,0,0,1-.71-.37v-8.14a.46.46,0,0,1,.71-.38l5.85,4.08A.45.45,0,0,1,3091.75,2254.85Z"/><circle class="f" cx="3082.5" cy="2254.5" r="4.5"/><circle class="f" cx="3082.5" cy="2245.5" r="4.5"/><path class="h" d="M2785.29,2245.11l5.86-4.08a.46.46,0,0,1,.71.38v8.14a.45.45,0,0,1-.71.37l-5.86-4.07A.46.46,0,0,1,2785.29,2245.11Z"/><path class="h" d="M2803.75,2254.85l-5.85,4.07a.45.45,0,0,1-.71-.37v-8.14a.46.46,0,0,1,.71-.38l5.85,4.08A.45.45,0,0,1,2803.75,2254.85Z"/><circle class="f" cx="2794.5" cy="2254.5" r="4.5"/><circle class="f" cx="2794.5" cy="2245.5" r="4.5"/><path class="h" d="M2623.29,2245.11l5.86-4.08a.46.46,0,0,1,.71.38v8.14a.45.45,0,0,1-.71.37l-5.86-4.07A.46.46,0,0,1,2623.29,2245.11Z"/><path class="h" d="M2641.75,2254.85l-5.85,4.07a.45.45,0,0,1-.71-.37v-8.14a.46.46,0,0,1,.71-.38l5.85,4.08A.45.45,0,0,1,2641.75,2254.85Z"/><circle class="f" cx="2632.5" cy="2254.5" r="4.5"/><circle class="f" cx="2632.5" cy="2245.5" r="4.5"/><path class="h" d="M2367.18,2245.11,2373,2241a.46.46,0,0,1,.71.38v8.14a.45.45,0,0,1-.71.37l-5.86-4.07A.46.46,0,0,1,2367.18,2245.11Z"/><path class="h" d="M2385.64,2254.85l-5.85,4.07a.45.45,0,0,1-.71-.37v-8.14a.46.46,0,0,1,.71-.38l5.85,4.08A.45.45,0,0,1,2385.64,2254.85Z"/><circle class="f" cx="2376.5" cy="2254.5" r="4.5"/><circle class="f" cx="2376.5" cy="2245.5" r="4.5"/><path class="h" d="M2173.19,2245.11l5.86-4.08a.46.46,0,0,1,.71.38v8.14a.45.45,0,0,1-.71.37l-5.86-4.07A.46.46,0,0,1,2173.19,2245.11Z"/><path class="h" d="M2191.65,2254.85l-5.85,4.07a.45.45,0,0,1-.71-.37v-8.14a.46.46,0,0,1,.71-.38l5.85,4.08A.45.45,0,0,1,2191.65,2254.85Z"/><circle class="f" cx="2182.5" cy="2254.5" r="4.5"/><circle class="f" cx="2182.5" cy="2245.5" r="4.5"/><path class="h" d="M2056.18,2245.11,2062,2241a.46.46,0,0,1,.71.38v8.14a.45.45,0,0,1-.71.37l-5.86-4.07A.46.46,0,0,1,2056.18,2245.11Z"/><path class="h" d="M2074.64,2254.85l-5.85,4.07a.45.45,0,0,1-.71-.37v-8.14a.46.46,0,0,1,.71-.38l5.85,4.08A.45.45,0,0,1,2074.64,2254.85Z"/><circle class="f" cx="2065.5" cy="2254.5" r="4.5"/><circle class="f" cx="2065.5" cy="2245.5" r="4.5"/><path class="h" d="M1876.19,2245.11l5.86-4.08a.46.46,0,0,1,.71.38v8.14a.45.45,0,0,1-.71.37l-5.86-4.07A.46.46,0,0,1,1876.19,2245.11Z"/><path class="h" d="M1894.65,2254.85l-5.85,4.07a.45.45,0,0,1-.71-.37v-8.14a.46.46,0,0,1,.71-.38l5.85,4.08A.45.45,0,0,1,1894.65,2254.85Z"/><circle class="f" cx="1885.5" cy="2254.5" r="4.5"/><circle class="f" cx="1885.5" cy="2245.5" r="4.5"/><path class="h" d="M1678.19,2245.11l5.86-4.08a.46.46,0,0,1,.71.38v8.14a.45.45,0,0,1-.71.37l-5.86-4.07A.46.46,0,0,1,1678.19,2245.11Z"/><path class="h" d="M1696.65,2254.85l-5.85,4.07a.45.45,0,0,1-.71-.37v-8.14a.46.46,0,0,1,.71-.38l5.85,4.08A.45.45,0,0,1,1696.65,2254.85Z"/><circle class="f" cx="1687.5" cy="2254.5" r="4.5"/><circle class="f" cx="1687.5" cy="2245.5" r="4.5"/><path class="h" d="M1462.29,2245.11l5.86-4.08a.46.46,0,0,1,.71.38v8.14a.45.45,0,0,1-.71.37l-5.86-4.07A.46.46,0,0,1,1462.29,2245.11Z"/><path class="h" d="M1480.75,2254.85l-5.85,4.07a.45.45,0,0,1-.71-.37v-8.14a.46.46,0,0,1,.71-.38l5.85,4.08A.45.45,0,0,1,1480.75,2254.85Z"/><circle class="f" cx="1471.5" cy="2254.5" r="4.5"/><circle class="f" cx="1471.5" cy="2245.5" r="4.5"/><path class="h" d="M1318.29,2245.11l5.86-4.08a.46.46,0,0,1,.71.38v8.14a.45.45,0,0,1-.71.37l-5.86-4.07A.46.46,0,0,1,1318.29,2245.11Z"/><path class="h" d="M1336.75,2254.85l-5.85,4.07a.45.45,0,0,1-.71-.37v-8.14a.46.46,0,0,1,.71-.38l5.85,4.08A.45.45,0,0,1,1336.75,2254.85Z"/><circle class="f" cx="1327.5" cy="2254.5" r="4.5"/><circle class="f" cx="1327.5" cy="2245.5" r="4.5"/><path class="h" d="M1138.69,2407.15l4.08,5.85a.46.46,0,0,1-.38.71h-8.14a.45.45,0,0,1-.37-.71l4.07-5.85A.45.45,0,0,1,1138.69,2407.15Z"/><path class="h" d="M1129,2425.28l-4.07-5.86a.45.45,0,0,1,.37-.71h8.14a.46.46,0,0,1,.38.71l-4.08,5.86A.46.46,0,0,1,1129,2425.28Z"/><circle class="f" cx="1138.5" cy="2416.5" r="4.5"/><circle class="f" cx="1129.5" cy="2416.5" r="4.5"/><line class="ab" x1="1615" y1="3925" x2="1620.11" y2="3919.44"/><line class="ab" x1="1578.67" y1="3888" x2="1582.93" y2="3883.9"/><line class="ab" x1="1557" y1="3843" x2="1564" y2="3843"/><line class="ab" x1="1557" y1="3791" x2="1564" y2="3791"/><line class="ab" x1="1557" y1="3718" x2="1564" y2="3718"/><line class="ab" x1="1728" y1="3409.5" x2="1732" y2="3409.5"/><line class="ab" x1="1728" y1="3335" x2="1732" y2="3335"/><line class="ab" x1="1728" y1="3263" x2="1732" y2="3263"/><line class="ab" x1="1728" y1="3182" x2="1751" y2="3182"/><line class="ab" x1="1728" y1="3117.33" x2="1751" y2="3117.33"/><line class="ab" x1="1725.33" y1="2992.3" x2="1751.33" y2="2992.3"/><line class="ab" x1="2168.8" y1="3464" x2="2174.4" y2="3457.71"/><line class="ab" x1="2113" y1="3374.5" x2="2122" y2="3374.5"/><line class="ab" x1="1813" y1="1837.5" x2="1823" y2="1837.5"/><line class="ab" x1="1816" y1="1964" x2="1823" y2="1964"/><line class="ab" x1="1816" y1="2225" x2="1823" y2="2225"/><line class="f" x1="1197" y1="2209.2" x2="1206" y2="2209.2"/><line class="f" x1="1197" y1="2416.2" x2="1206" y2="2416.2"/><line class="f" x1="1143" y1="2416.2" x2="1152" y2="2416.2"/><line class="f" x1="1170" y1="2416.2" x2="1179" y2="2416.2"/><line class="f" x1="1197" y1="2531.2" x2="1206" y2="2531.2"/><line class="f" x1="1140" y1="2531.2" x2="1152" y2="2531.2"/><line class="f" x1="1170" y1="2531.2" x2="1179" y2="2531.2"/><line class="f" x1="1246.5" y1="2012" x2="1246.5" y2="1994"/><line class="f" x1="1435.5" y1="2007" x2="1435.5" y2="1998"/><line class="f" x1="1633.5" y1="2007" x2="1633.5" y2="1998"/><line class="f" x1="1885.5" y1="2007" x2="1885.5" y2="1998"/><line class="f" x1="2146.5" y1="2007" x2="2146.5" y2="1998"/><line class="f" x1="2376.5" y1="2268" x2="2376.5" y2="2259"/><line class="f" x1="2182.5" y1="2268" x2="2182.5" y2="2259"/><line class="f" x1="2065.5" y1="2268" x2="2065.5" y2="2259"/><line class="f" x1="1885.5" y1="2268" x2="1885.5" y2="2259"/><line class="f" x1="1687.5" y1="2268" x2="1687.5" y2="2259"/><line class="f" x1="1471.5" y1="2268" x2="1471.5" y2="2259"/><line class="f" x1="1327.5" y1="2268" x2="1327.5" y2="2259"/><line class="ab" x1="1984.53" y1="2941" x2="1984.53" y2="2933"/><line class="ab" x1="1984.53" y1="2915" x2="1984.53" y2="2907"/><line class="ab" x1="1984.5" y1="2889" x2="1984.5" y2="2880"/><line class="ab" x1="1816" y1="2442.67" x2="1823" y2="2442.67"/><line class="ab" x1="2113" y1="3128" x2="2121" y2="3128"/><line class="ab" x1="2113" y1="3040" x2="2121" y2="3040"/><line class="ab" x1="1816" y1="2638.5" x2="1823" y2="2638.5"/><line class="ab" x1="1769" y1="2810" x2="1798" y2="2810"/><line class="ab" x1="1816" y1="2810" x2="1823" y2="2810"/><line class="ab" x1="1861.33" y1="2940.33" x2="1861.33" y2="2933.33"/><line class="ab" x1="1861.33" y1="2914.5" x2="1861.33" y2="2907.5"/><line class="ab" x1="1861.3" y1="2889" x2="1861.3" y2="2880"/><line class="f" x1="2632.5" y1="2268" x2="2632.5" y2="2259"/><line class="f" x1="2794.5" y1="2268" x2="2794.5" y2="2259"/><line class="f" x1="3082.5" y1="2268" x2="3082.5" y2="2259"/><line class="f" x1="2358" y1="2299.35" x2="2367" y2="2299.35"/><line class="f" x1="2358" y1="2434.5" x2="2367" y2="2434.5"/><line class="f" x1="2358" y1="2578.5" x2="2367" y2="2578.5"/><line class="f" x1="2266.6" y1="2695.6" x2="2273.57" y2="2702.1"/><line class="f" x1="2113.5" y1="2850.4" x2="2121.85" y2="2859.4"/><line class="f" x1="1422.5" y1="2849" x2="1432.5" y2="2840"/><line class="f" x1="1292.5" y1="2714" x2="1299.94" y2="2707.3"/><line class="f" x1="2358" y1="2137.5" x2="2367" y2="2137.5"/><line class="f" x1="1197" y1="2046" x2="1209" y2="2046"/><circle class="e" cx="1246.5" cy="2016" r="4.5"/><circle class="f" cx="1246.5" cy="2016" r="4.5"/><circle class="e" cx="1215" cy="2045.5" r="4.5"/><circle class="f" cx="1215" cy="2045.5" r="4.5"/><circle class="e" cx="724.5" cy="792" r="4.5"/><circle class="f" cx="724.5" cy="792" r="4.5"/><circle class="e" cx="467.5" cy="3699.2" r="4.5"/><circle class="f" cx="467.5" cy="3699.2" r="4.5"/><circle class="e" cx="1134" cy="2531.1" r="4.5"/><circle class="f" cx="1134" cy="2531.1" r="4.5"/></svg>